<svg width="32" height="31" viewBox="0 0 32 31" fill="none" xmlns="http://www.w3.org/2000/svg">
<path d="M17.0054 8.64647C17.0054 9.18788 17.0054 9.72928 16.9377 10.2707C16.87 10.8121 16.7685 11.3197 16.6331 11.8272C16.5655 12.0641 16.4978 12.3348 16.5316 12.6055C16.5655 12.8085 16.2948 13.6545 16.3286 13.2146C16.3624 12.6732 16.5316 12.1656 16.5655 11.6242C16.5993 11.0828 16.5655 10.5752 16.4301 10.0677C16.2948 9.59393 16.0579 9.18788 15.7872 8.78182C15.2458 8.03739 14.5014 7.42831 13.6893 6.98842C12.8095 6.48085 11.862 6.14247 10.8807 5.93945C9.86558 5.73642 8.81661 5.70258 7.80147 5.90561C6.85401 6.10863 5.97423 6.51469 5.19596 7.08993C4.99293 7.22528 4.82374 7.39447 4.65455 7.5975C4.58688 7.69901 4.48536 7.76669 4.41769 7.8682C4.38385 7.93588 4.35001 7.96972 4.31617 8.03739C4.28234 8.07123 4.2485 8.1389 4.21466 8.1389C4.14698 8.10507 4.31617 7.90204 4.31617 7.8682C4.38385 7.76669 4.45152 7.66518 4.55304 7.56366C4.68839 7.36063 4.85758 7.19145 5.02677 7.02226C5.66968 6.37934 6.51563 5.93945 7.39541 5.70258C8.41055 5.43188 9.45953 5.43188 10.4747 5.60107C10.9822 5.70258 11.5236 5.83793 12.0312 5.97328C12.5049 6.10863 12.9787 6.27782 13.4524 6.51469C13.5201 6.54853 13.5877 6.58236 13.6216 6.58236C13.6554 6.58236 13.6893 6.58236 13.6893 6.58236C13.6893 6.54853 13.6554 6.51469 13.6216 6.51469C13.4524 6.37934 13.2155 6.31166 13.0125 6.21015C12.7756 6.10863 12.5388 5.97328 12.2681 5.87177C12.0312 5.77026 11.7605 5.70258 11.5236 5.60107C11.0161 5.43188 10.5085 5.33036 10.0009 5.26269C9.73023 5.22885 9.49336 5.19501 9.22266 5.16118C8.95196 5.12734 8.71509 5.12734 8.44439 5.12734C8.30904 5.12734 8.17369 5.16118 8.03834 5.16118H7.86915C7.83531 5.16118 7.76763 5.16118 7.76763 5.12734C7.76763 5.05966 7.93682 5.02582 7.93682 5.02582C8.07217 4.99199 8.17369 4.99199 8.30904 4.99199C8.57974 4.99199 8.85044 4.92431 9.08731 4.92431C9.35801 4.89047 9.62872 4.89047 9.89942 4.89047C10.9484 4.89047 12.0312 5.0935 13.0125 5.46572C13.2494 5.56723 13.4862 5.66874 13.6893 5.80409C13.7569 5.83793 13.8246 5.87177 13.8584 5.90561C13.8923 5.93945 13.9261 5.93945 13.96 5.97328C13.9938 5.97328 14.0276 6.00712 14.0276 5.93945C14.0276 5.90561 13.9938 5.90561 13.9938 5.87177C13.96 5.83793 13.8923 5.80409 13.8584 5.77026C13.7569 5.70258 13.6554 5.63491 13.5201 5.56723C13.2832 5.43188 13.0802 5.26269 12.8433 5.12734C12.6403 4.95815 12.4034 4.8228 12.2004 4.65361C12.0989 4.58593 11.9974 4.51826 11.862 4.45058C11.7943 4.41674 11.7605 4.3829 11.6928 4.34907C11.659 4.34907 11.6251 4.31523 11.5913 4.28139C11.5575 4.24755 11.5575 4.21372 11.5913 4.21372H11.6928C11.8282 4.24755 11.9297 4.28139 12.065 4.34907C12.3019 4.41674 12.5726 4.51826 12.8095 4.61977C13.7231 4.99199 14.6029 5.49955 15.3473 6.10863C15.7534 6.41318 16.0917 6.75155 16.4301 7.15761C16.4978 7.25912 16.5993 7.36063 16.667 7.42831C16.667 7.42831 16.7347 7.52982 16.7685 7.49599C16.8023 7.46215 16.7347 7.39447 16.7008 7.36063C16.5655 7.15761 16.3963 6.95458 16.2271 6.78539C15.8887 6.37934 15.5503 6.00712 15.1443 5.63491C14.7721 5.29653 14.3322 4.99199 13.9261 4.72128C13.0802 4.17988 12.1666 3.77382 11.1853 3.53696C10.6777 3.40161 10.1701 3.30009 9.62871 3.26626C9.12115 3.19858 8.57974 3.16474 8.03834 3.23242C7.80147 3.26626 7.56461 3.33393 7.29391 3.33393C7.26007 3.33393 7.19239 3.36777 7.12472 3.33393C7.05704 3.30009 7.22623 3.23242 7.26007 3.23242C7.53077 3.16474 7.76763 3.13091 8.03834 3.06323C8.30904 2.99555 8.57974 2.96172 8.81661 2.92788C9.08731 2.89404 9.35801 2.92788 9.62871 2.92788H9.83174C9.86558 2.92788 9.93325 2.92788 9.93325 2.89404C9.93325 2.8602 9.83174 2.82636 9.7979 2.82636H9.62871C9.08731 2.79253 8.57974 2.75869 8.03834 2.79253C7.0232 2.8602 6.00807 3.13091 5.09445 3.5708C4.21466 4.01069 3.43639 4.55209 2.75963 5.26269C2.42125 5.63491 2.08287 6.00712 1.81217 6.44701C1.67682 6.65004 1.54147 6.88691 1.43996 7.12377C1.33844 7.36063 1.27077 7.5975 1.16925 7.83436C1.16925 7.8682 1.13542 7.93588 1.10158 7.96972C1.06774 8.00355 1.06774 8.00355 1.03391 7.96972C1.03391 7.93588 1.0339 7.8682 1.06774 7.80053C1.13542 7.56366 1.20309 7.3268 1.3046 7.08993C1.47379 6.6162 1.67682 6.14247 1.98136 5.73642C2.48893 4.95815 3.16569 4.28139 3.94396 3.77382C4.75606 3.23242 5.66969 2.8602 6.61715 2.69101C7.22623 2.55566 7.90299 2.52182 8.5459 2.55566H8.57974C9.22266 2.65718 9.86558 2.75869 10.2716 2.8602C10.3731 2.89404 10.4408 2.92788 10.5423 2.92788C10.5762 2.92788 10.61 2.92788 10.6438 2.96172C10.6777 2.96172 10.7115 2.99555 10.7454 2.96172C12.2004 3.36777 15.4827 5.26269 16.9715 7.5975C16.9715 7.93588 17.0054 8.30809 17.0054 8.64647Z" fill="white"/>
<path d="M31.7925 10.0678C31.6572 9.59404 31.4542 9.12031 31.2173 8.71425C31.0819 8.51123 30.9466 8.3082 30.7774 8.13901C30.642 7.96982 30.4729 7.80063 30.3375 7.66528L30.2698 7.5976C30.1006 7.42841 29.9315 7.22539 29.7961 7.02236C29.6607 6.81933 29.5592 6.58247 29.5931 6.31177C29.5931 6.21025 29.6607 6.10874 29.5931 6.00723C29.5592 5.97339 29.5254 5.97339 29.4577 5.93955C29.4239 5.93955 29.3562 5.90571 29.3224 5.87187C29.1532 5.70268 29.1532 5.43198 29.1532 5.22896C29.1532 5.0936 29.1532 4.99209 29.1193 4.85674C29.0855 4.75523 29.0178 4.65371 28.9502 4.58604C28.8825 4.51836 28.781 4.45068 28.7471 4.34917C28.7133 4.24766 28.7471 4.14614 28.781 4.04463C28.8148 3.94312 28.8825 3.87544 28.984 3.80777C29.0855 3.70625 29.187 3.63858 29.2885 3.5709C29.4916 3.40171 29.6946 3.26636 29.9315 3.13101C30.1006 2.99566 30.3375 2.89414 30.5405 2.86031C30.642 2.86031 30.7436 2.86031 30.8112 2.89414C30.9127 2.96182 30.9466 3.0295 30.9804 3.13101C31.0481 3.36787 31.0143 3.60474 30.9804 3.8416C30.9466 4.11231 30.9127 4.38301 30.8789 4.65371C30.8112 5.19512 30.7097 5.73652 30.6082 6.24409C30.5405 6.51479 30.5067 6.75166 30.439 7.02236C30.4052 7.15771 30.3713 7.25923 30.3375 7.39458C30.3037 7.46225 30.2698 7.5976 30.3375 7.66528C30.4052 7.69912 30.5067 7.66528 30.5744 7.63144C30.6759 7.5976 30.7436 7.52993 30.8112 7.42841C30.9466 7.25923 31.0143 7.02236 31.0819 6.7855C31.2173 6.27793 31.3526 5.77036 31.4542 5.22896C31.6572 4.14614 31.7249 3.06333 31.6233 1.98052C31.5895 1.70982 31.5895 1.43912 31.5557 1.16841C31.5218 0.93155 31.488 0.694685 31.3865 0.491658C31.285 0.288631 31.1496 0.119442 30.9127 0.153279C30.6759 0.187117 30.5067 0.390144 30.3375 0.525496C30.1683 0.694685 29.9991 0.897712 29.8299 1.0669C29.6607 1.23609 29.4577 1.40528 29.2547 1.54063C28.8486 1.81133 28.4087 2.0482 27.935 2.21739C27.4275 2.38658 26.9199 2.48809 26.4123 2.55577C25.8709 2.5896 25.3295 2.5896 24.7881 2.55577C24.2467 2.52193 23.7053 2.45425 23.1639 2.38658C22.6225 2.3189 22.0811 2.25123 21.5397 2.14971C20.5245 1.98052 19.5094 1.70982 18.5619 1.26993C18.0882 1.0669 17.6483 0.796198 17.2084 0.525496C17.1069 0.45782 17.0054 0.390144 16.9039 0.322469C16.8024 0.254793 16.7009 0.153279 16.5993 0.0856037C16.464 0.017928 16.2948 -0.0497476 16.1595 0.0517659C16.0579 0.119442 15.9903 0.288631 15.9564 0.390144C15.9226 0.525496 15.8887 0.660847 15.8549 0.796198C15.7534 1.30377 15.7534 1.84517 15.8211 2.38658C15.9226 3.43555 16.261 4.45069 16.5317 5.46582C16.7009 6.17642 16.8362 6.88701 16.9377 7.5976C16.9716 7.93598 17.0054 8.27436 17.0054 8.64658C17.0054 9.18798 17.0054 9.72939 16.9377 10.2708C16.87 10.8122 16.7685 11.3198 16.6332 11.8273C16.5655 12.0642 16.4978 12.3349 16.5317 12.6056C16.5655 12.8086 16.2948 13.6546 16.3286 13.2147C16.3625 12.6733 16.5317 12.1657 16.5655 11.6243C16.5993 11.0829 16.5655 10.5753 16.4302 10.0678C16.2948 9.59404 16.0579 9.18798 15.7872 8.78193C15.2458 8.0375 14.5014 7.42842 13.6893 6.98852C12.8095 6.48096 11.862 6.14258 10.8807 5.93955C9.86561 5.73652 8.81664 5.70269 7.8015 5.90571C6.85404 6.10874 5.97426 6.51479 5.19599 7.09004C4.99296 7.22539 4.82377 7.39458 4.65458 7.5976C4.58691 7.69912 4.4854 7.76679 4.41772 7.86831C4.38388 7.93598 4.35004 7.96982 4.31621 8.0375C4.28237 8.07133 4.24853 8.13901 4.21469 8.13901C4.14702 8.10517 4.31621 7.90214 4.31621 7.86831C4.38388 7.76679 4.45156 7.66528 4.55307 7.56377C4.68842 7.36074 4.85761 7.19155 5.0268 7.02236C5.66972 6.37944 6.51566 5.93955 7.39545 5.70268C8.41058 5.43198 9.45956 5.43198 10.4747 5.60117C10.9823 5.70269 11.5237 5.83804 12.0312 5.97339C12.505 6.10874 12.9787 6.27793 13.4524 6.51479C13.5201 6.54863 13.5878 6.58247 13.6216 6.58247C13.6555 6.58247 13.6893 6.58247 13.6893 6.58247C13.6893 6.54863 13.6555 6.51479 13.6216 6.51479C13.4524 6.37944 13.2156 6.31177 13.0125 6.21025C12.7757 6.10874 12.5388 5.97339 12.2681 5.87187C12.0312 5.77036 11.7605 5.70269 11.5237 5.60117C11.0161 5.43198 10.5085 5.33047 10.001 5.26279C9.73026 5.22896 9.4934 5.19512 9.22269 5.16128C8.95199 5.12744 8.71512 5.12744 8.44442 5.12744C8.30907 5.12744 8.17372 5.16128 8.03837 5.16128H7.86918C7.83534 5.16128 7.76766 5.16128 7.76766 5.12744C7.76766 5.05977 7.93685 5.02593 7.93685 5.02593C8.07221 4.99209 8.17372 4.99209 8.30907 4.99209C8.57977 4.99209 8.85047 4.92441 9.08734 4.92441C9.35804 4.89058 9.62875 4.89058 9.89945 4.89058C10.9484 4.89058 12.0312 5.0936 13.0125 5.46582C13.2494 5.56733 13.4863 5.66885 13.6893 5.8042C13.757 5.83804 13.8246 5.87187 13.8585 5.90571C13.8923 5.93955 13.9262 5.93955 13.96 5.97339C13.9938 5.97339 14.0277 6.00723 14.0277 5.93955C14.0277 5.90571 13.9938 5.90571 13.9938 5.87187C13.96 5.83804 13.8923 5.8042 13.8585 5.77036C13.757 5.70269 13.6554 5.63501 13.5201 5.56733C13.2832 5.43198 13.0802 5.26279 12.8433 5.12744C12.6403 4.95825 12.4035 4.8229 12.2004 4.65371C12.0989 4.58604 11.9974 4.51836 11.862 4.45068C11.7944 4.41685 11.7605 4.38301 11.6929 4.34917C11.659 4.34917 11.6252 4.31533 11.5913 4.2815C11.5575 4.24766 11.5575 4.21382 11.5913 4.21382H11.6929C11.8282 4.24766 11.9297 4.2815 12.0651 4.34917C12.3019 4.41685 12.5726 4.51836 12.8095 4.61987C13.7231 4.99209 14.6029 5.49966 15.3473 6.10874C15.7534 6.41328 16.0918 6.75166 16.4302 7.15771C16.4978 7.25923 16.5993 7.36074 16.667 7.42841C16.667 7.42841 16.7347 7.52993 16.7685 7.49609C16.8024 7.46225 16.7347 7.39458 16.7009 7.36074C16.5655 7.15771 16.3963 6.95469 16.2271 6.7855C15.8887 6.37944 15.5504 6.00723 15.1443 5.63501C14.7721 5.29663 14.3322 4.99209 13.9262 4.72139C13.0802 4.17998 12.1666 3.77393 11.1853 3.53706C10.6777 3.40171 10.1702 3.3002 9.62875 3.26636C9.12118 3.19868 8.57977 3.16485 8.03837 3.23252C7.8015 3.26636 7.56464 3.33404 7.29394 3.33404C7.2601 3.33404 7.19242 3.36787 7.12475 3.33404C7.05707 3.3002 7.22626 3.23252 7.2601 3.23252C7.5308 3.16485 7.76767 3.13101 8.03837 3.06333C8.30907 2.99566 8.57977 2.96182 8.81664 2.92798C9.08734 2.89414 9.35804 2.92798 9.62875 2.92798H9.83177C9.86561 2.92798 9.93328 2.92798 9.93328 2.89414C9.93328 2.86031 9.83177 2.82647 9.79793 2.82647H9.62875C9.08734 2.79263 8.57977 2.75879 8.03837 2.79263C7.02323 2.86031 6.0081 3.13101 5.09448 3.5709C4.21469 4.01079 3.43642 4.5522 2.75966 5.26279C2.42128 5.63501 2.08291 6.00723 1.8122 6.44712C1.67685 6.65014 1.5415 6.88701 1.43999 7.12387C1.33848 7.36074 1.2708 7.5976 1.16929 7.83447C1.16929 7.86831 1.13545 7.93598 1.10161 7.96982C1.06777 8.00366 1.06777 8.00366 1.03394 7.96982C1.03394 7.93598 1.03393 7.86831 1.06777 7.80063C1.13545 7.56377 1.20312 7.3269 1.30464 7.09004C1.47382 6.61631 1.67685 6.14258 1.98139 5.73652C2.48896 4.95825 3.16572 4.2815 3.94399 3.77393C4.7561 3.23252 5.66972 2.86031 6.61718 2.69112C7.22626 2.55577 7.90302 2.52193 8.54594 2.55577H8.57977C8.98582 2.5896 9.39188 2.62344 9.7641 2.72496C9.93328 2.75879 10.1025 2.82647 10.2378 2.86031C10.3393 2.89414 10.407 2.92798 10.5085 2.92798C10.5424 2.92798 10.5762 2.92798 10.61 2.96182C10.6439 2.96182 10.6777 2.99566 10.7116 2.96182C10.7792 2.92798 10.6439 2.89414 10.6439 2.89414C10.4747 2.82647 10.2717 2.75879 10.1025 2.72496C9.83177 2.65728 9.56107 2.5896 9.32421 2.55577C8.44442 2.38658 7.59847 2.35274 6.71869 2.45425C6.65101 2.45425 6.58334 2.48809 6.48183 2.48809C6.38031 2.48809 6.2788 2.52193 6.17729 2.55577C5.22983 2.75879 4.3162 3.13101 3.50409 3.67241C2.96269 4.04463 2.45513 4.48452 2.04907 4.95825C2.01523 4.99209 1.98139 5.02593 1.94756 5.05977C1.77837 5.22896 1.64302 5.43198 1.50766 5.63501C0.932421 6.41328 0.526368 7.3269 0.255665 8.27436C-0.0150375 9.2895 -0.0488774 10.3723 0.0526361 11.3874C0.187987 12.4026 0.458693 13.3839 0.864747 14.3313C1.03394 14.7374 1.23696 15.1096 1.43999 15.4818C2.21826 16.8353 3.23339 18.0535 4.35004 19.1701C5.12831 19.9484 5.90658 20.6928 6.68485 21.4373C7.46313 22.1817 8.27523 22.8923 9.08734 23.6367C10.7792 25.1256 12.5726 26.6483 14.2645 28.1033C14.5352 28.3402 15.9226 29.3553 16.5993 29.9306C16.87 30.1674 17.1746 30.4381 17.513 30.5735C17.8175 30.7088 17.8852 30.6073 18.0544 30.4043C18.2912 30.1336 18.5958 29.8967 18.8665 29.626C19.1372 29.3553 19.4079 29.0846 19.6447 28.7801C20.626 27.6973 21.675 26.716 22.724 25.7347C23.5361 24.9903 24.3144 24.2458 25.0926 23.5014C25.8371 22.757 26.5815 21.9787 27.2921 21.2004C27.9689 20.4221 28.6456 19.61 29.2209 18.7303C29.8299 17.8843 30.3375 17.0045 30.8112 16.0571C31.285 15.1434 31.6233 14.1621 31.8264 13.147C32.0632 12.1319 32.0632 11.0829 31.7925 10.0678ZM19.8816 27.2574C19.8478 27.5958 19.7124 27.9341 19.5771 28.2725C19.2387 28.9493 18.6973 29.5245 18.0882 29.9644C17.8852 30.1336 17.716 30.3028 17.4791 30.0998C17.4791 30.0321 17.1069 29.8291 17.0392 29.7614C16.87 29.626 16.7009 29.5245 16.5317 29.3892C16.2271 29.1523 15.9226 28.9493 15.6519 28.7124C15.0766 28.2725 14.5352 27.765 13.9938 27.2912C13.6554 27.0205 13.3171 26.7498 12.9787 26.4453C12.6741 26.1746 12.3019 25.9716 12.0312 25.667H12.0651C12.6065 25.4301 13.114 25.1933 13.6893 25.0579C13.8923 25.0241 13.96 25.0241 13.8585 24.8211C13.7231 24.5842 13.6554 24.3135 13.6893 24.0428C13.7231 23.6029 14.1969 24.0428 14.366 24.1443C14.5691 24.2797 14.8059 24.415 15.009 24.5165C15.1443 24.5842 15.5504 24.9226 15.4827 24.5504C15.4827 24.4827 15.4489 24.415 15.4827 24.3473C15.5504 23.9074 16.261 24.7534 16.3286 24.8887C16.3963 25.0241 16.4302 24.9903 16.464 24.8887C16.4978 24.7534 16.4302 24.4827 16.3963 24.3473C16.3625 24.009 16.3286 23.6367 16.2948 23.2645V23.163C16.3963 22.96 17.1746 23.9074 17.2761 24.0428C17.3438 24.1105 17.3776 24.212 17.513 24.212C17.5806 24.212 17.6483 24.1443 17.6822 24.1105C17.8175 24.009 17.9529 23.8736 18.0882 23.7383C18.2236 23.6367 18.3251 23.6367 18.3251 23.8059C18.3589 24.0766 18.3927 24.3473 18.3927 24.5842C18.3927 24.6857 18.3589 24.9226 18.4266 25.0241C18.5619 25.1594 18.7988 24.7872 18.968 24.7195C19.2049 24.618 19.4079 24.618 19.5771 24.415C19.6109 24.3812 19.6447 24.3135 19.6786 24.3135C19.7801 24.2797 19.8139 24.3812 19.8139 24.4488C19.8816 24.7534 19.8139 25.0918 19.8478 25.4301C19.8816 26.0731 19.9493 26.6483 19.8816 27.2574Z" fill="#E27C1D"/>
<path d="M30.9804 3.84165C30.9466 4.11235 30.9127 4.38305 30.8789 4.65376C30.8112 5.19516 30.7097 5.73657 30.6082 6.24414C30.5405 6.51484 30.5067 6.7517 30.439 7.02241C30.4052 7.15776 30.3713 7.25927 30.3375 7.39462C30.3036 7.4623 30.2698 7.59765 30.3375 7.66532L30.2698 7.59765C30.1006 7.42846 29.9314 7.22543 29.7961 7.02241C29.6607 6.81938 29.5592 6.58251 29.5931 6.31181C29.5931 6.2103 29.6607 6.10878 29.5931 6.00727C29.5592 5.97343 29.5254 5.97343 29.4577 5.93959C29.4239 5.93959 29.3562 5.90576 29.3224 5.87192C29.1532 5.70273 29.1532 5.43203 29.1532 5.229C29.1532 5.09365 29.1532 4.99214 29.1193 4.85678C29.0855 4.75527 29.0178 4.65376 28.9501 4.58608C28.8825 4.51841 28.7809 4.45073 28.7471 4.34922C28.7133 4.2477 28.7471 4.14619 28.7809 4.04468C28.8148 3.94316 28.8825 3.87549 28.984 3.80781C29.0855 3.7063 29.187 3.63862 29.2885 3.57095C29.4915 3.40176 29.6946 3.26641 29.9314 3.13105C30.1006 2.9957 30.3375 2.89419 30.5405 2.86035C30.642 2.86035 30.7435 2.86035 30.8112 2.89419C30.9127 2.96187 30.9466 3.02954 30.9804 3.13105C31.0481 3.36792 31.0142 3.60478 30.9804 3.84165Z" fill="white"/>
<path d="M19.8816 27.2573C19.8478 27.5957 19.7124 27.9341 19.5771 28.2724C19.2387 28.9492 18.6973 29.5244 18.0882 29.9643C17.8852 30.1335 17.716 30.3027 17.4791 30.0997C17.4791 30.032 17.1069 29.829 17.0392 29.7613C16.87 29.6259 16.7008 29.5244 16.5316 29.3891C16.2271 29.1522 15.9226 28.9492 15.6519 28.7123C15.0766 28.2724 14.5352 27.7649 13.9938 27.2911C13.6554 27.0204 13.3171 26.7497 12.9787 26.4452C12.6741 26.1745 12.3019 25.9715 12.0312 25.6669H12.0651C12.6065 25.4301 13.114 25.1932 13.6893 25.0578C13.8923 25.024 13.96 25.024 13.8585 24.821C13.7231 24.5841 13.6554 24.3134 13.6893 24.0427C13.7231 23.6028 14.1968 24.0427 14.366 24.1442C14.5691 24.2796 14.8059 24.4149 15.0089 24.5164C15.1443 24.5841 15.5504 24.9225 15.4827 24.5503C15.4827 24.4826 15.4488 24.4149 15.4827 24.3472C15.5504 23.9074 16.2609 24.7533 16.3286 24.8887C16.3963 25.024 16.4301 24.9902 16.464 24.8887C16.4978 24.7533 16.4301 24.4826 16.3963 24.3472C16.3625 24.0089 16.3286 23.6367 16.2948 23.2644C16.2948 23.2306 16.2948 23.1968 16.2948 23.1629C16.3963 22.9599 17.1746 23.9074 17.2761 24.0427C17.3438 24.1104 17.3776 24.2119 17.5129 24.2119C17.5806 24.2119 17.6483 24.1442 17.6821 24.1104C17.8175 24.0089 17.9528 23.8735 18.0882 23.7382C18.2235 23.6366 18.3251 23.6367 18.3251 23.8058C18.3589 24.0765 18.3927 24.3472 18.3927 24.5841C18.3927 24.6856 18.3589 24.9225 18.4266 25.024C18.5619 25.1594 18.7988 24.7871 18.968 24.7195C19.2048 24.6179 19.4079 24.6179 19.5771 24.4149C19.6109 24.3811 19.6447 24.3134 19.6786 24.3134C19.7801 24.2796 19.8139 24.3811 19.8139 24.4488C19.8816 24.7533 19.8139 25.0917 19.8478 25.4301C19.8816 26.073 19.9493 26.6482 19.8816 27.2573Z" fill="white"/>
<path d="M16.5994 17.0044C16.0241 16.5983 15.415 16.2599 14.8059 15.9554C13.3171 15.2787 11.7605 14.8726 10.1702 14.4665C9.25654 14.2297 8.30908 14.0266 7.49697 13.5191C6.68486 13.0115 6.04194 12.1656 6.04194 11.2181C6.00811 10.2706 6.82022 9.32319 7.76767 9.39087C6.85405 9.18784 5.97427 9.99995 5.87275 10.9474C5.7374 12.3686 6.92173 13.4176 8.07221 13.9928C9.29038 14.6357 10.6439 14.9403 11.9636 15.3125C13.3509 15.7185 14.7383 16.1923 15.9226 17.0721C18.1559 18.7301 19.4756 21.4371 19.9155 24.1442C19.9493 24.3472 19.9831 24.5502 19.9831 24.7532C19.9831 24.8548 20.017 24.9224 20.017 25.0239C20.017 24.9563 20.1862 24.7194 20.22 24.6517C20.2538 24.4825 20.22 24.3134 20.2538 24.1442C20.3215 22.8245 21.472 22.0801 22.3856 21.3695C23.5361 20.4897 24.4836 19.3392 25.2618 18.0872C25.2618 18.0534 25.2957 18.0534 25.2957 18.0195C26.1078 16.666 26.683 15.0418 26.3108 13.4852C27.3259 12.91 28.5779 12.7408 29.7284 13.0115C29.6946 12.0302 29.5592 10.9136 28.781 10.3383C27.9689 9.72924 26.7845 10.0338 25.9048 10.5414C23.8068 11.7595 22.3518 14.0266 20.0846 14.8726C21.8442 14.8388 23.3331 13.4176 25.0926 13.3161C23.3331 14.365 21.472 14.9741 19.4756 15.4817C18.7311 15.6509 18.8665 16.3615 18.7988 16.9705C18.7988 17.6473 18.6635 18.3241 18.5958 18.967C18.0544 18.1887 17.3776 17.5458 16.5994 17.0044ZM24.5512 9.25551C24.5512 9.22168 24.5174 9.22168 24.4836 9.22168C24.4497 9.22168 24.3821 9.18784 24.3144 9.154C24.2467 9.12016 24.179 9.12016 24.1452 9.08632C24.0437 9.05249 23.9083 9.01865 23.8068 8.98481C23.5699 8.95097 23.2992 8.91714 23.0624 8.98481C22.8255 9.01865 22.5886 9.12016 22.4195 9.28935C22.0811 9.59389 21.9119 10.0676 21.7089 10.4398C21.675 10.5075 21.6074 10.5752 21.5735 10.6429C21.5397 10.7105 21.472 10.8121 21.472 10.8797C21.472 10.9136 21.4382 10.9812 21.472 10.9812C21.5735 11.1166 24.4836 9.28935 24.5512 9.25551C24.5174 9.25551 24.4836 9.25551 24.5512 9.25551ZM17.4453 6.9207C17.3099 6.81919 17.2084 6.88687 17.2084 7.02222C17.2084 7.15757 17.4791 9.154 17.513 9.154C17.5468 9.154 17.716 8.8833 17.716 8.84946C17.7837 8.74795 17.8514 8.6126 17.919 8.51108C18.0205 8.30805 18.0882 8.10503 18.1559 7.902C18.2236 7.73281 18.2574 7.56362 18.1221 7.39443C18.1221 7.36059 18.0882 7.3606 18.0882 7.32676C18.0544 7.29292 18.0544 7.29292 18.0205 7.29292C17.8175 7.15757 17.6483 7.05605 17.4453 6.9207Z" fill="white"/>
<path d="M17.5468 7.39451C17.4791 7.36067 17.4115 7.36067 17.4115 7.46218C17.4115 7.52986 17.5807 8.64651 17.5807 8.64651C17.6483 8.54499 17.7498 8.40964 17.8175 8.24045C17.919 8.00359 18.0882 7.80056 17.8175 7.59753C17.7837 7.59753 17.6483 7.46218 17.5468 7.39451ZM23.7053 9.49245C23.7053 9.45861 23.7053 9.45861 23.7053 9.49245C23.5023 9.39094 23.3669 9.3571 23.1977 9.32326C22.8932 9.25559 22.5548 9.42478 22.3856 9.69548C22.2841 9.89851 22.1488 10.1015 22.0473 10.3046C22.0473 10.3046 22.0134 10.3384 22.0473 10.3722C22.1149 10.4399 23.6376 9.45861 23.7053 9.49245Z" fill="#151B19"/>
<path d="M17.3099 5.33051C17.3438 5.39819 17.3438 5.46586 17.3776 5.56738C17.4453 5.60121 17.513 5.63505 17.6145 5.66889C17.6145 5.66889 17.6483 5.63505 17.6821 5.63505C17.7498 5.53354 17.8175 5.46586 17.8852 5.36435C17.9867 5.19516 18.122 4.9583 18.0544 4.75527C18.0205 4.58608 18.4604 4.01084 18.4266 3.80781C18.3589 3.57094 18.2236 3.50327 18.2912 3.40176C18.3251 3.30024 18.4604 3.36792 18.6296 3.23257C18.6634 3.19873 18.765 3.13105 18.7988 3.02954C18.8326 2.92803 18.7988 2.86035 18.765 2.75884C18.7311 2.69116 18.6634 2.62348 18.5958 2.55581C18.5281 2.48813 18.4266 2.42046 18.3251 2.31894C18.1559 2.18359 17.9529 2.04824 17.7837 1.91289C17.6145 1.81138 17.4453 1.70986 17.2423 1.67603C17.1746 1.67603 17.0731 1.67603 17.0054 1.70986C16.9377 1.7437 16.87 1.84521 16.87 1.91289C16.8024 2.11592 16.8362 2.35278 16.87 2.55581C16.9039 2.79267 16.9377 3.02954 16.9716 3.2664C17.0392 3.74013 17.1069 4.21386 17.2084 4.65376C17.1746 4.85678 17.2423 5.09365 17.3099 5.33051Z" fill="white"/>
<path d="M18.7988 14.1622C18.765 14.1284 18.7311 14.0945 18.6973 14.0607C18.5619 13.9592 18.4604 13.8577 18.3251 13.7562C17.8513 13.4178 17.4114 13.0117 16.9716 12.6395C16.9039 12.6057 16.8362 12.538 16.7685 12.5042C16.5317 12.4026 16.4978 12.4703 16.3963 12.6733C16.3286 12.8087 16.2948 13.0456 16.2948 13.1809C16.2948 13.4516 16.2948 13.6885 16.4302 13.9253C16.5993 14.2637 16.9377 14.5006 17.3099 14.6021C17.513 14.6698 17.716 14.6698 17.919 14.7036C18.1559 14.7375 18.3927 14.7375 18.5958 14.7036C18.6634 14.7036 18.7311 14.6698 18.7988 14.6698C18.8665 14.6698 19.0695 14.6021 19.0695 14.5344C19.0357 14.3991 18.9342 14.2637 18.7988 14.1622Z" fill="#1B201C"/>
</svg>
