<svg xmlns="http://www.w3.org/2000/svg" width="32" height="31" fill="none" viewBox="0 0 32 31"><path fill="#fff" d="M17.005 8.646c0 .542 0 1.083-.067 1.625-.068.541-.17 1.049-.305 1.556-.067.237-.135.508-.101.778.034.204-.237 1.05-.203.61.033-.542.203-1.05.236-1.59.034-.542 0-1.05-.135-1.557-.135-.474-.372-.88-.643-1.286-.541-.745-1.286-1.354-2.098-1.794a9.4 9.4 0 0 0-2.808-1.049c-1.015-.203-2.064-.236-3.08-.033A6.8 6.8 0 0 0 5.196 7.09a2.5 2.5 0 0 0-.541.508c-.068.101-.17.169-.237.27-.034.068-.068.102-.102.17-.034.033-.067.1-.101.1-.068-.033.101-.236.101-.27.068-.101.136-.203.237-.304.135-.203.305-.373.474-.542.643-.643 1.489-1.083 2.368-1.32 1.016-.27 2.065-.27 3.08-.1.507.1 1.049.236 1.556.371.474.136.948.305 1.421.542a.6.6 0 0 0 .17.067h.067a.073.073 0 0 0-.067-.067c-.17-.136-.406-.203-.61-.305-.236-.101-.473-.237-.744-.338-.237-.102-.508-.17-.744-.27A8 8 0 0 0 10 5.261c-.27-.033-.508-.067-.778-.1-.271-.035-.508-.035-.779-.035-.135 0-.27.034-.406.034H7.87c-.034 0-.101 0-.101-.034 0-.067.169-.101.169-.101.135-.034.237-.034.372-.034.27 0 .541-.068.778-.068.271-.034.542-.034.812-.034a8.9 8.9 0 0 1 3.114.576c.236.101.473.203.676.338a.7.7 0 0 1 .17.102c.033.033.067.033.101.067.034 0 .068.034.068-.034 0-.033-.034-.033-.034-.067-.034-.034-.102-.068-.136-.102a3 3 0 0 0-.338-.203c-.237-.135-.44-.304-.677-.44-.203-.169-.44-.304-.643-.473a3 3 0 0 0-.338-.203c-.068-.034-.101-.068-.17-.102-.033 0-.067-.034-.1-.068-.035-.033-.035-.067 0-.067h.1c.136.034.238.067.373.135.237.068.508.17.745.27.913.373 1.793.88 2.537 1.49.406.304.745.643 1.083 1.049.068.101.17.203.237.27 0 0 .068.102.101.068.034-.034-.033-.102-.067-.135a4 4 0 0 0-.474-.576 11.5 11.5 0 0 0-1.083-1.15c-.372-.338-.812-.643-1.218-.914a9 9 0 0 0-2.74-1.184 8 8 0 0 0-1.557-.27c-.508-.068-1.05-.102-1.59-.035-.238.034-.474.102-.745.102-.034 0-.102.034-.17 0-.067-.034.102-.102.136-.102.27-.067.508-.101.778-.169.271-.067.542-.101.779-.135.27-.034.541 0 .812 0h.203c.034 0 .101 0 .101-.034s-.101-.068-.135-.068h-.17c-.54-.033-1.048-.067-1.59-.033a8.1 8.1 0 0 0-2.944.778c-.88.44-1.658.981-2.334 1.692-.339.372-.677.744-.948 1.184-.135.203-.27.44-.372.677s-.17.474-.27.71a.26.26 0 0 1-.068.136c-.034.034-.034.034-.068 0 0-.034 0-.102.034-.17.067-.236.135-.473.237-.71.169-.474.372-.948.676-1.354a6.8 6.8 0 0 1 1.963-1.962A7.1 7.1 0 0 1 6.617 2.69a7.3 7.3 0 0 1 1.929-.135h.034c.643.101 1.286.203 1.692.304.101.034.169.068.27.068.034 0 .068 0 .102.034.034 0 .067.034.101 0 1.455.406 4.738 2.3 6.227 4.636 0 .338.033.71.033 1.048"/><path fill="#e27c1d" d="M31.793 10.068a6 6 0 0 0-.576-1.354c-.135-.203-.27-.406-.44-.575a6 6 0 0 0-.44-.474l-.067-.067a4 4 0 0 1-.474-.576c-.135-.203-.237-.44-.203-.71 0-.102.068-.203 0-.305-.034-.034-.068-.034-.135-.067a.26.26 0 0 1-.136-.068c-.169-.17-.169-.44-.169-.643 0-.135 0-.237-.034-.372a.7.7 0 0 0-.169-.271c-.067-.068-.169-.135-.203-.237s0-.203.034-.304a.46.46 0 0 1 .203-.237c.101-.102.203-.17.304-.237.204-.17.407-.305.643-.44a1.4 1.4 0 0 1 .61-.27c.101 0 .203 0 .27.033a.4.4 0 0 1 .17.237c.067.237.033.474 0 .71l-.102.813c-.068.541-.17 1.083-.27 1.59-.069.27-.102.508-.17.778-.034.136-.068.237-.102.373-.033.067-.067.203 0 .27.068.034.17 0 .237-.034a.46.46 0 0 0 .237-.203c.136-.169.203-.406.27-.643.136-.507.272-1.015.373-1.556.203-1.083.27-2.166.17-3.248-.034-.271-.034-.542-.068-.813-.034-.236-.068-.473-.17-.676-.101-.203-.236-.373-.473-.339s-.406.237-.576.372c-.169.17-.338.373-.507.542-.17.17-.372.338-.575.474-.406.27-.846.507-1.32.676a8 8 0 0 1-1.523.339 13 13 0 0 1-1.624 0 26 26 0 0 1-1.624-.17 27 27 0 0 1-1.624-.236c-1.015-.17-2.03-.44-2.978-.88-.474-.203-.914-.474-1.354-.745l-.304-.203c-.102-.067-.203-.169-.305-.236-.135-.068-.304-.136-.44-.034-.101.067-.169.237-.203.338l-.101.406a5 5 0 0 0-.034 1.59c.102 1.05.44 2.065.71 3.08q.255 1.065.407 2.132c.034.338.067.676.067 1.049 0 .541 0 1.082-.067 1.624-.068.541-.17 1.049-.305 1.556-.067.237-.135.508-.101.779.034.203-.237 1.049-.203.609.034-.542.203-1.05.236-1.59.034-.542 0-1.05-.135-1.557-.135-.474-.372-.88-.643-1.286-.541-.745-1.286-1.354-2.098-1.793a9.4 9.4 0 0 0-2.808-1.05c-1.015-.202-2.064-.236-3.08-.033A6.8 6.8 0 0 0 5.197 7.09a2.5 2.5 0 0 0-.541.508c-.068.101-.17.169-.237.27-.034.068-.068.102-.102.17-.034.033-.067.101-.101.101-.068-.034.101-.237.101-.27.068-.102.136-.204.237-.305.135-.203.305-.372.474-.542.643-.643 1.489-1.082 2.368-1.32 1.016-.27 2.065-.27 3.08-.1.507.1 1.049.236 1.556.371a8 8 0 0 1 1.421.542.6.6 0 0 0 .17.067h.067a.073.073 0 0 0-.067-.067c-.17-.136-.406-.203-.61-.305-.236-.101-.473-.237-.744-.338-.237-.102-.508-.17-.744-.27A8 8 0 0 0 10 5.261c-.27-.033-.508-.067-.778-.1-.271-.035-.508-.035-.779-.035-.135 0-.27.034-.406.034H7.87c-.034 0-.101 0-.101-.034 0-.067.169-.101.169-.101.135-.034.237-.034.372-.034.27 0 .541-.068.778-.068.271-.033.542-.033.812-.033a8.9 8.9 0 0 1 3.114.575c.236.101.473.203.676.338a.7.7 0 0 1 .17.102c.033.034.067.034.101.067.034 0 .068.034.068-.033 0-.034-.034-.034-.034-.068-.034-.034-.102-.068-.136-.102a3 3 0 0 0-.338-.203c-.237-.135-.44-.304-.677-.44-.203-.169-.44-.304-.643-.473a3 3 0 0 0-.338-.203c-.068-.034-.101-.068-.17-.102-.033 0-.067-.034-.1-.067-.035-.034-.035-.068 0-.068h.1c.136.034.238.067.373.135.237.068.508.17.745.27.913.373 1.793.88 2.537 1.49.406.304.745.643 1.083 1.049.068.101.17.203.237.27 0 0 .068.102.101.068.034-.034-.033-.101-.067-.135a4 4 0 0 0-.474-.575 11.5 11.5 0 0 0-1.083-1.151c-.372-.338-.812-.643-1.218-.914a9 9 0 0 0-2.74-1.184 8 8 0 0 0-1.557-.27c-.508-.068-1.05-.102-1.59-.034-.237.033-.474.101-.745.101-.034 0-.102.034-.17 0-.067-.034.102-.101.136-.101.27-.068.508-.102.778-.17.271-.067.542-.101.779-.135.27-.034.541 0 .812 0h.203c.034 0 .101 0 .101-.034s-.101-.068-.135-.068h-.17c-.54-.033-1.048-.067-1.59-.033a8.1 8.1 0 0 0-2.944.778c-.88.44-1.658.981-2.334 1.692-.339.372-.677.744-.948 1.184-.135.203-.27.44-.372.677s-.17.474-.27.71a.26.26 0 0 1-.068.136c-.034.034-.034.034-.068 0 0-.034 0-.102.034-.17.067-.236.135-.473.237-.71.169-.474.372-.947.676-1.353a6.8 6.8 0 0 1 1.963-1.963A7.1 7.1 0 0 1 6.617 2.69a7.3 7.3 0 0 1 1.929-.135h.034c.406.034.812.067 1.184.169.17.034.338.101.474.135.101.034.169.068.27.068.034 0 .068 0 .102.034.034 0 .068.034.102 0 .067-.034-.068-.068-.068-.068a3.3 3.3 0 0 0-.542-.169 8 8 0 0 0-.778-.17 8.4 8.4 0 0 0-2.605-.1c-.068 0-.136.033-.237.033a1 1 0 0 0-.305.068 7.8 7.8 0 0 0-2.673 1.116A7.6 7.6 0 0 0 2.05 4.958l-.101.102c-.17.169-.305.372-.44.575-.576.778-.982 1.692-1.252 2.64-.271 1.015-.305 2.097-.203 3.112q.203 1.524.812 2.944c.169.406.372.779.575 1.15.778 1.354 1.793 2.573 2.91 3.69.778.777 1.557 1.522 2.335 2.266.778.745 1.59 1.455 2.402 2.2 1.692 1.489 3.486 3.011 5.178 4.466.27.237 1.658 1.252 2.334 1.828.271.236.576.507.914.642.304.136.372.034.541-.169.237-.27.542-.507.813-.778.27-.27.54-.541.778-.846.981-1.083 2.03-2.064 3.079-3.045.812-.745 1.59-1.49 2.369-2.234a71 71 0 0 0 2.2-2.3c.676-.779 1.353-1.591 1.928-2.47a19 19 0 0 0 1.59-2.674 11 11 0 0 0 1.015-2.91 6.3 6.3 0 0 0-.034-3.08m-11.911 17.19c-.034.338-.17.676-.305 1.015-.338.676-.88 1.252-1.489 1.691-.203.17-.372.339-.609.136 0-.068-.372-.27-.44-.339-.169-.135-.338-.236-.507-.372-.305-.237-.61-.44-.88-.677-.575-.44-1.117-.947-1.658-1.42-.339-.272-.677-.542-1.015-.847-.305-.27-.677-.473-.948-.778h.034c.542-.237 1.049-.474 1.624-.61.203-.033.271-.033.17-.236a1.26 1.26 0 0 1-.17-.778c.034-.44.508 0 .677.101.203.136.44.271.643.373.135.067.541.406.474.033 0-.067-.034-.135 0-.203.067-.44.778.406.846.542.067.135.101.101.135 0 .034-.136-.034-.406-.068-.542-.034-.338-.067-.71-.101-1.082v-.102c.101-.203.88.744.981.88.068.067.102.169.237.169.068 0 .135-.068.17-.102.134-.101.27-.236.405-.372.136-.101.237-.101.237.068.034.27.068.541.068.778 0 .102-.034.339.034.44.135.135.372-.237.541-.305.237-.101.44-.101.61-.304.033-.034.067-.101.1-.101.102-.034.136.067.136.135.068.304 0 .643.034.981.034.643.101 1.218.034 1.827"/><path fill="#fff" d="m30.98 3.842-.101.812a22 22 0 0 1-.27 1.59c-.069.27-.102.508-.17.778-.034.136-.068.237-.102.373-.033.067-.067.203 0 .27l-.067-.067a4 4 0 0 1-.474-.576c-.135-.203-.237-.44-.203-.71 0-.102.068-.203 0-.305-.034-.034-.068-.034-.135-.067a.26.26 0 0 1-.136-.068c-.169-.17-.169-.44-.169-.643 0-.135 0-.237-.034-.372a.7.7 0 0 0-.169-.27c-.067-.069-.17-.136-.203-.238-.034-.101 0-.203.034-.304a.46.46 0 0 1 .203-.237 2 2 0 0 1 .304-.237c.203-.17.407-.305.643-.44a1.4 1.4 0 0 1 .61-.27c.101 0 .203 0 .27.033a.4.4 0 0 1 .17.237c.067.237.033.474 0 .71M19.882 27.257c-.034.339-.17.677-.305 1.015-.338.677-.88 1.252-1.489 1.692-.203.17-.372.339-.609.136 0-.068-.372-.271-.44-.339-.169-.135-.338-.237-.507-.372-.305-.237-.61-.44-.88-.677-.575-.44-1.117-.947-1.658-1.42-.339-.272-.677-.542-1.015-.847-.305-.27-.677-.474-.948-.778h.034c.542-.237 1.049-.474 1.624-.61.203-.033.271-.033.17-.236a1.26 1.26 0 0 1-.17-.778c.034-.44.508 0 .677.101.203.136.44.27.643.372.135.068.541.407.474.034 0-.067-.034-.135 0-.203.067-.44.778.406.846.542.067.135.101.101.135 0 .034-.136-.034-.406-.068-.542-.034-.338-.067-.71-.101-1.083v-.101c.101-.203.88.744.981.88.068.067.102.169.237.169.068 0 .135-.068.17-.102.134-.101.27-.236.405-.372.136-.101.237-.101.237.068.034.27.068.541.068.778 0 .102-.034.338.034.44.135.135.372-.237.541-.305.237-.101.44-.101.61-.304.033-.034.067-.102.1-.102.102-.033.136.068.136.136.068.304 0 .643.034.981.034.643.101 1.218.034 1.827"/><path fill="#fff" d="M16.6 17.004a14 14 0 0 0-1.794-1.049c-1.489-.676-3.045-1.082-4.636-1.489-.913-.236-1.86-.44-2.673-.947-.812-.508-1.455-1.353-1.455-2.3-.034-.948.778-1.896 1.726-1.828-.914-.203-1.794.609-1.895 1.556-.136 1.422 1.049 2.47 2.2 3.046 1.217.643 2.57.947 3.89 1.32 1.388.406 2.775.88 3.96 1.76 2.233 1.657 3.553 4.364 3.993 7.071.033.203.067.406.067.61 0 .1.034.168.034.27 0-.068.17-.305.203-.372.034-.17 0-.339.034-.508.067-1.32 1.218-2.064 2.132-2.774 1.15-.88 2.098-2.03 2.876-3.283 0-.034.034-.034.034-.067.812-1.354 1.387-2.978 1.015-4.535a4.8 4.8 0 0 1 3.417-.473c-.033-.982-.169-2.098-.947-2.674-.812-.609-1.996-.304-2.876.203-2.098 1.218-3.553 3.486-5.82 4.332 1.76-.034 3.248-1.455 5.008-1.557-1.76 1.049-3.621 1.658-5.617 2.166-.745.169-.61.88-.677 1.489 0 .676-.136 1.353-.203 1.996a7.9 7.9 0 0 0-1.997-1.963m7.951-7.748c0-.034-.034-.034-.067-.034-.034 0-.102-.034-.17-.068-.067-.034-.135-.034-.169-.068-.101-.034-.237-.067-.338-.101-.237-.034-.508-.068-.745 0a1.14 1.14 0 0 0-.643.304c-.338.305-.507.779-.71 1.15-.034.069-.102.136-.136.204-.033.067-.101.17-.101.237 0 .034-.034.101 0 .101.101.136 3.012-1.692 3.08-1.725-.035 0-.068 0 0 0M17.445 6.92c-.135-.102-.237-.034-.237.101 0 .136.271 2.132.305 2.132s.203-.27.203-.305c.068-.101.135-.236.203-.338.101-.203.17-.406.237-.609.068-.17.101-.338-.034-.508 0-.033-.034-.033-.034-.067-.034-.034-.034-.034-.068-.034-.203-.135-.372-.237-.575-.372"/><path fill="#151b19" d="M17.547 7.395c-.068-.034-.136-.034-.136.067 0 .068.17 1.185.17 1.185.067-.102.169-.237.236-.407.102-.236.271-.44 0-.642-.033 0-.169-.136-.27-.203m6.158 2.097q0-.05 0 0a1.8 1.8 0 0 0-.507-.169c-.305-.067-.643.102-.812.372-.102.204-.237.406-.339.61 0 0-.034.033 0 .067.068.068 1.59-.913 1.658-.88"/><path fill="#fff" d="M17.31 5.33c.034.068.034.136.068.237.067.034.135.068.236.102 0 0 .034-.034.068-.034.068-.101.136-.17.203-.27.102-.17.237-.407.17-.61-.035-.169.405-.744.372-.947-.068-.237-.203-.305-.136-.406.034-.102.17-.034.339-.17.033-.033.135-.101.169-.202s0-.17-.034-.271a1 1 0 0 0-.17-.203c-.067-.068-.168-.136-.27-.237-.17-.135-.372-.27-.541-.406-.17-.102-.339-.203-.542-.237-.067 0-.169 0-.237.034s-.135.135-.135.203c-.068.203-.034.44 0 .643l.102.71c.067.474.135.948.236 1.388-.033.203.034.44.102.677"/><path fill="#1b201c" d="m18.799 14.162-.102-.101c-.135-.102-.237-.203-.372-.305-.474-.338-.914-.744-1.353-1.117-.068-.033-.136-.101-.204-.135-.236-.101-.27-.034-.372.17a1.4 1.4 0 0 0-.101.507c0 .27 0 .508.135.744.17.339.508.576.88.677.203.068.406.068.609.102.237.034.474.034.677 0 .067 0 .135-.034.203-.034.067 0 .27-.068.27-.136a.7.7 0 0 0-.27-.372"/></svg>