<svg xmlns="http://www.w3.org/2000/svg"><symbol id="about-arrow"><path d="m.3.4 8 6 8-6"></path></symbol><symbol id="Button_up"><circle cx="25" cy="25" r="23.5"></circle><path d="M37.263 28.263 25.971 16.971a1 1 0 0 0-1.415 0L13.264 28.263"></path></symbol><symbol id="icon"><path fill="#fff" d="M17.005 8.646c0 .542 0 1.083-.067 1.625-.068.541-.17 1.049-.305 1.556-.067.237-.135.508-.101.778.034.204-.237 1.05-.203.61.033-.542.203-1.05.236-1.59.034-.542 0-1.05-.135-1.557-.135-.474-.372-.88-.643-1.286-.541-.745-1.286-1.354-2.098-1.794a9.4 9.4 0 0 0-2.808-1.049c-1.015-.203-2.064-.236-3.08-.033A6.76 6.76 0 0 0 5.196 7.09a2.5 2.5 0 0 0-.541.508c-.068.101-.17.169-.237.27-.034.068-.068.102-.102.17-.034.033-.067.1-.101.1-.068-.033.101-.236.101-.27.068-.101.136-.203.237-.304.135-.203.305-.373.474-.542.643-.643 1.489-1.083 2.368-1.32 1.016-.27 2.065-.27 3.08-.1.507.1 1.049.236 1.556.371.474.136.948.305 1.421.542.068.034.136.067.17.067h.067a.073.073 0 0 0-.067-.067c-.17-.136-.406-.203-.61-.305-.236-.101-.473-.237-.744-.338-.237-.102-.508-.17-.744-.27A8 8 0 0 0 10 5.261c-.27-.033-.508-.067-.778-.1-.271-.035-.508-.035-.779-.035-.135 0-.27.034-.406.034H7.87c-.034 0-.101 0-.101-.034 0-.067.169-.101.169-.101.135-.034.237-.034.372-.034.27 0 .541-.068.778-.068.271-.034.542-.034.812-.034 1.05 0 2.132.204 3.114.576.236.101.473.203.676.338.068.034.136.068.17.102.033.033.067.033.101.067.034 0 .068.034.068-.034 0-.033-.034-.033-.034-.067-.034-.034-.102-.068-.136-.102a3 3 0 0 0-.338-.203c-.237-.135-.44-.304-.677-.44-.203-.169-.44-.304-.643-.473a3 3 0 0 0-.338-.203c-.068-.034-.101-.068-.17-.102-.033 0-.067-.034-.1-.068-.035-.033-.035-.067 0-.067h.1c.136.034.238.067.373.135.237.068.508.17.745.27.913.373 1.793.88 2.537 1.49.406.304.745.643 1.083 1.049.068.101.17.203.237.27 0 0 .068.102.101.068.034-.034-.033-.102-.067-.135a4 4 0 0 0-.474-.576 11.5 11.5 0 0 0-1.083-1.15c-.372-.338-.812-.643-1.218-.914a9 9 0 0 0-2.74-1.184 8 8 0 0 0-1.557-.27c-.508-.068-1.05-.102-1.59-.035-.238.034-.474.102-.745.102-.034 0-.102.034-.17 0-.067-.034.102-.102.136-.102.27-.067.508-.101.778-.169.271-.067.542-.101.779-.135.27-.034.541 0 .812 0h.203c.034 0 .101 0 .101-.034s-.101-.068-.135-.068h-.17c-.54-.033-1.048-.067-1.59-.033a8.1 8.1 0 0 0-2.944.778c-.88.44-1.658.981-2.334 1.692-.339.372-.677.744-.948 1.184-.135.203-.27.44-.372.677s-.17.474-.27.71a.26.26 0 0 1-.068.136c-.034.034-.034.034-.068 0 0-.034 0-.102.034-.17.067-.236.135-.473.237-.71.169-.474.372-.948.676-1.354a6.8 6.8 0 0 1 1.963-1.962A7.1 7.1 0 0 1 6.617 2.69c.61-.135 1.286-.17 1.929-.135h.034c.643.101 1.286.203 1.692.304.101.034.169.068.27.068.034 0 .068 0 .102.034.034 0 .067.034.101 0 1.455.406 4.738 2.3 6.227 4.636 0 .338.033.71.033 1.048"></path><path fill="#E27C1D" d="M31.793 10.068a6 6 0 0 0-.576-1.354c-.135-.203-.27-.406-.44-.575a6 6 0 0 0-.44-.474l-.067-.067a4 4 0 0 1-.474-.576c-.135-.203-.237-.44-.203-.71 0-.102.068-.203 0-.305-.034-.034-.068-.034-.135-.067a.26.26 0 0 1-.136-.068c-.169-.17-.169-.44-.169-.643 0-.135 0-.237-.034-.372a.7.7 0 0 0-.169-.271c-.067-.068-.169-.135-.203-.237s0-.203.034-.304a.46.46 0 0 1 .203-.237c.101-.102.203-.17.304-.237.204-.17.407-.305.643-.44a1.4 1.4 0 0 1 .61-.27c.101 0 .203 0 .27.033a.4.4 0 0 1 .17.237c.067.237.033.474 0 .71l-.102.813c-.068.541-.17 1.083-.27 1.59-.069.27-.102.508-.17.778-.034.136-.068.237-.102.373-.033.067-.067.203 0 .27.068.034.17 0 .237-.034a.46.46 0 0 0 .237-.203c.136-.169.203-.406.27-.643.136-.507.272-1.015.373-1.556.203-1.083.27-2.166.17-3.248-.034-.271-.034-.542-.068-.813-.034-.236-.068-.473-.17-.676-.101-.203-.236-.373-.473-.339s-.406.237-.576.372c-.169.17-.338.373-.507.542-.17.17-.372.338-.575.474-.406.27-.846.507-1.32.676a8 8 0 0 1-1.523.339 13 13 0 0 1-1.624 0c-.541-.034-1.083-.102-1.624-.17-.542-.067-1.083-.135-1.624-.236-1.015-.17-2.03-.44-2.978-.88-.474-.203-.914-.474-1.354-.745l-.304-.203c-.102-.067-.203-.169-.305-.236-.135-.068-.304-.136-.44-.034-.101.067-.169.237-.203.338l-.101.406a5 5 0 0 0-.034 1.59c.102 1.05.44 2.065.71 3.08q.255 1.065.407 2.132c.034.338.067.676.067 1.049 0 .541 0 1.082-.067 1.624-.068.541-.17 1.049-.305 1.556-.067.237-.135.508-.101.779.034.203-.237 1.049-.203.609.034-.542.203-1.05.236-1.59.034-.542 0-1.05-.135-1.557-.135-.474-.372-.88-.643-1.286-.541-.745-1.286-1.354-2.098-1.793a9.4 9.4 0 0 0-2.808-1.05c-1.015-.202-2.064-.236-3.08-.033A6.76 6.76 0 0 0 5.197 7.09a2.5 2.5 0 0 0-.541.508c-.068.101-.17.169-.237.27-.034.068-.068.102-.102.17-.034.033-.067.101-.101.101-.068-.034.101-.237.101-.27.068-.102.136-.204.237-.305.135-.203.305-.372.474-.542.643-.643 1.489-1.082 2.368-1.32 1.016-.27 2.065-.27 3.08-.1.507.1 1.049.236 1.556.371a8 8 0 0 1 1.421.542.6.6 0 0 0 .17.067h.067a.073.073 0 0 0-.067-.067c-.17-.136-.406-.203-.61-.305-.236-.101-.473-.237-.744-.338-.237-.102-.508-.17-.744-.27A8 8 0 0 0 10 5.261c-.27-.033-.508-.067-.778-.1-.271-.035-.508-.035-.779-.035-.135 0-.27.034-.406.034H7.87c-.034 0-.101 0-.101-.034 0-.067.169-.101.169-.101.135-.034.237-.034.372-.034.27 0 .541-.068.778-.068.271-.033.542-.033.812-.033 1.05 0 2.132.203 3.114.575.236.101.473.203.676.338a.7.7 0 0 1 .17.102c.033.034.067.034.101.067.034 0 .068.034.068-.033 0-.034-.034-.034-.034-.068-.034-.034-.102-.068-.136-.102a3 3 0 0 0-.338-.203c-.237-.135-.44-.304-.677-.44-.203-.169-.44-.304-.643-.473-.101-.068-.203-.136-.338-.203-.068-.034-.101-.068-.17-.102-.033 0-.067-.034-.1-.067-.035-.034-.035-.068 0-.068h.1c.136.034.238.067.373.135.237.068.508.17.745.27.913.373 1.793.88 2.537 1.49.406.304.745.643 1.083 1.049.068.101.17.203.237.27 0 0 .068.102.101.068.034-.034-.033-.101-.067-.135a4 4 0 0 0-.474-.575 11.5 11.5 0 0 0-1.083-1.151c-.372-.338-.812-.643-1.218-.914a9 9 0 0 0-2.74-1.184 8 8 0 0 0-1.557-.27c-.508-.068-1.05-.102-1.59-.034-.237.033-.474.101-.745.101-.034 0-.102.034-.17 0-.067-.034.102-.101.136-.101.27-.068.508-.102.778-.17.271-.067.542-.101.779-.135.27-.034.541 0 .812 0h.203c.034 0 .101 0 .101-.034s-.101-.068-.135-.068h-.17c-.54-.033-1.048-.067-1.59-.033a8.1 8.1 0 0 0-2.944.778c-.88.44-1.658.981-2.334 1.692-.339.372-.677.744-.948 1.184-.135.203-.27.44-.372.677s-.17.474-.27.71a.26.26 0 0 1-.068.136c-.034.034-.034.034-.068 0 0-.034 0-.102.034-.17.067-.236.135-.473.237-.71.169-.474.372-.947.676-1.353a6.8 6.8 0 0 1 1.963-1.963A7.1 7.1 0 0 1 6.617 2.69c.61-.135 1.286-.17 1.929-.135h.034c.406.034.812.067 1.184.169.17.034.338.101.474.135.101.034.169.068.27.068.034 0 .068 0 .102.034.034 0 .068.034.102 0 .067-.034-.068-.068-.068-.068a3.3 3.3 0 0 0-.542-.169c-.27-.068-.54-.135-.778-.17a8.4 8.4 0 0 0-2.605-.1c-.068 0-.136.033-.237.033a1 1 0 0 0-.305.068 7.8 7.8 0 0 0-2.673 1.116A7.6 7.6 0 0 0 2.05 4.958l-.101.102c-.17.169-.305.372-.44.575-.576.778-.982 1.692-1.252 2.64-.271 1.015-.305 2.097-.203 3.112q.203 1.524.812 2.944c.169.406.372.779.575 1.15.778 1.354 1.793 2.573 2.91 3.69.778.777 1.557 1.522 2.335 2.266.778.745 1.59 1.455 2.402 2.2 1.692 1.489 3.486 3.011 5.178 4.466.27.237 1.658 1.252 2.334 1.828.271.236.576.507.914.642.304.136.372.034.541-.169.237-.27.542-.507.813-.778.27-.27.54-.541.778-.846.981-1.083 2.03-2.064 3.079-3.045.812-.745 1.59-1.49 2.369-2.234a71 71 0 0 0 2.2-2.3c.676-.779 1.353-1.591 1.928-2.47a19 19 0 0 0 1.59-2.674 11 11 0 0 0 1.015-2.91 6.3 6.3 0 0 0-.034-3.08m-11.911 17.19c-.034.338-.17.676-.305 1.015-.338.676-.88 1.252-1.489 1.691-.203.17-.372.339-.609.136 0-.068-.372-.27-.44-.339-.169-.135-.338-.236-.507-.372-.305-.237-.61-.44-.88-.677-.575-.44-1.117-.947-1.658-1.42-.339-.272-.677-.542-1.015-.847-.305-.27-.677-.473-.948-.778h.034c.542-.237 1.049-.474 1.624-.61.203-.033.271-.033.17-.236a1.26 1.26 0 0 1-.17-.778c.034-.44.508 0 .677.101.203.136.44.271.643.373.135.067.541.406.474.033 0-.067-.034-.135 0-.203.067-.44.778.406.846.542.067.135.101.101.135 0 .034-.136-.034-.406-.068-.542-.034-.338-.067-.71-.101-1.082v-.102c.101-.203.88.744.981.88.068.067.102.169.237.169.068 0 .135-.068.17-.102.134-.101.27-.236.405-.372.136-.101.237-.101.237.068.034.27.068.541.068.778 0 .102-.034.339.034.44.135.135.372-.237.541-.305.237-.101.44-.101.61-.304.033-.034.067-.101.1-.101.102-.034.136.067.136.135.068.304 0 .643.034.981.034.643.101 1.218.034 1.827"></path><path fill="#fff" d="m30.98 3.842-.101.812a22 22 0 0 1-.27 1.59c-.069.27-.102.508-.17.778-.034.136-.068.237-.102.373-.033.067-.067.203 0 .27l-.067-.067a4 4 0 0 1-.474-.576c-.135-.203-.237-.44-.203-.71 0-.102.068-.203 0-.305-.034-.034-.068-.034-.135-.067a.26.26 0 0 1-.136-.068c-.169-.17-.169-.44-.169-.643 0-.135 0-.237-.034-.372a.7.7 0 0 0-.169-.27c-.067-.069-.17-.136-.203-.238-.034-.101 0-.203.034-.304a.46.46 0 0 1 .203-.237 2 2 0 0 1 .304-.237c.203-.17.407-.305.643-.44a1.4 1.4 0 0 1 .61-.27c.101 0 .203 0 .27.033a.4.4 0 0 1 .17.237c.067.237.033.474 0 .71M19.882 27.257c-.034.339-.17.677-.305 1.015-.338.677-.88 1.252-1.489 1.692-.203.17-.372.339-.609.136 0-.068-.372-.271-.44-.339-.169-.135-.338-.237-.507-.372-.305-.237-.61-.44-.88-.677-.575-.44-1.117-.947-1.658-1.42-.339-.272-.677-.542-1.015-.847-.305-.27-.677-.474-.948-.778h.034c.542-.237 1.049-.474 1.624-.61.203-.033.271-.033.17-.236a1.26 1.26 0 0 1-.17-.778c.034-.44.508 0 .677.101.203.136.44.27.643.372.135.068.541.407.474.034 0-.067-.034-.135 0-.203.067-.44.778.406.846.542.067.135.101.101.135 0 .034-.136-.034-.406-.068-.542-.034-.338-.067-.71-.101-1.083v-.101c.101-.203.88.744.981.88.068.067.102.169.237.169.068 0 .135-.068.17-.102.134-.101.27-.236.405-.372.136-.101.237-.101.237.068.034.27.068.541.068.778 0 .102-.034.338.034.44.135.135.372-.237.541-.305.237-.101.44-.101.61-.304.033-.034.067-.102.1-.102.102-.033.136.068.136.136.068.304 0 .643.034.981.034.643.101 1.218.034 1.827"></path><path fill="#fff" d="M16.6 17.004a14 14 0 0 0-1.794-1.049c-1.489-.676-3.045-1.082-4.636-1.489-.913-.236-1.86-.44-2.673-.947-.812-.508-1.455-1.353-1.455-2.3-.034-.948.778-1.896 1.726-1.828-.914-.203-1.794.609-1.895 1.556-.136 1.422 1.049 2.47 2.2 3.046 1.217.643 2.57.947 3.89 1.32 1.388.406 2.775.88 3.96 1.76 2.233 1.657 3.553 4.364 3.993 7.071.033.203.067.406.067.61 0 .1.034.168.034.27 0-.068.17-.305.203-.372.034-.17 0-.339.034-.508.067-1.32 1.218-2.064 2.132-2.774 1.15-.88 2.098-2.03 2.876-3.283 0-.034.034-.034.034-.067.812-1.354 1.387-2.978 1.015-4.535a4.8 4.8 0 0 1 3.417-.473c-.033-.982-.169-2.098-.947-2.674-.812-.609-1.996-.304-2.876.203-2.098 1.218-3.553 3.486-5.82 4.332 1.76-.034 3.248-1.455 5.008-1.557-1.76 1.049-3.621 1.658-5.617 2.166-.745.169-.61.88-.677 1.489 0 .676-.136 1.353-.203 1.996a7.9 7.9 0 0 0-1.997-1.963m7.951-7.748c0-.034-.034-.034-.067-.034-.034 0-.102-.034-.17-.068-.067-.034-.135-.034-.169-.068-.101-.034-.237-.067-.338-.101-.237-.034-.508-.068-.745 0a1.14 1.14 0 0 0-.643.304c-.338.305-.507.779-.71 1.15-.034.069-.102.136-.136.204-.033.067-.101.17-.101.237 0 .034-.034.101 0 .101.101.136 3.012-1.692 3.08-1.725-.035 0-.068 0 0 0M17.445 6.92c-.135-.102-.237-.034-.237.101 0 .136.271 2.132.305 2.132s.203-.27.203-.305c.068-.101.135-.236.203-.338.101-.203.17-.406.237-.609.068-.17.101-.338-.034-.508 0-.033-.034-.033-.034-.067-.034-.034-.034-.034-.068-.034-.203-.135-.372-.237-.575-.372"></path><path fill="#151B19" d="M17.547 7.395c-.068-.034-.136-.034-.136.067 0 .068.17 1.185.17 1.185.067-.102.169-.237.236-.407.102-.236.271-.44 0-.642-.033 0-.169-.136-.27-.203m6.158 2.097q0-.05 0 0a1.8 1.8 0 0 0-.507-.169c-.305-.067-.643.102-.812.372-.102.204-.237.406-.339.61 0 0-.034.033 0 .067.068.068 1.59-.913 1.658-.88"></path><path fill="#fff" d="M17.31 5.33c.034.068.034.136.068.237.067.034.135.068.236.102 0 0 .034-.034.068-.034.068-.101.136-.17.203-.27.102-.17.237-.407.17-.61-.035-.169.405-.744.372-.947-.068-.237-.203-.305-.136-.406.034-.102.17-.034.339-.17.033-.033.135-.101.169-.202s0-.17-.034-.271c-.034-.068-.102-.136-.17-.203-.067-.068-.168-.136-.27-.237-.17-.135-.372-.27-.541-.406-.17-.102-.339-.203-.542-.237-.067 0-.169 0-.237.034s-.135.135-.135.203c-.068.203-.034.44 0 .643l.102.71c.067.474.135.948.236 1.388-.033.203.034.44.102.677"></path><path fill="#1B201C" d="m18.799 14.162-.102-.101c-.135-.102-.237-.203-.372-.305-.474-.338-.914-.744-1.353-1.117-.068-.033-.136-.101-.204-.135-.236-.101-.27-.034-.372.17a1.4 1.4 0 0 0-.101.507c0 .27 0 .508.135.744.17.339.508.576.88.677.203.068.406.068.609.102.237.034.474.034.677 0 .067 0 .135-.034.203-.034.067 0 .27-.068.27-.136a.7.7 0 0 0-.27-.372"></path></symbol><symbol id="insta" viewBox="0 0 48 48"><path d="M0 36.8V10.933c.133-.666.133-1.466.267-2.133.4-2.4 1.466-4.533 3.466-6.133A8.7 8.7 0 0 1 6.8.933C7.867.4 10.933 0 11.2 0h25.467c.133 0 1.333.133 2 .133a10.3 10.3 0 0 1 3.6 1.067c1.2.667 2.133 1.333 3.066 2.4 1.334 1.6 2.134 3.333 2.4 5.333C47.867 9.467 48 10 48 10.4c0 9.067 0 27.6-.133 27.867a14 14 0 0 1-.8 3.2c-.667 1.466-1.6 2.8-2.8 3.866a8.7 8.7 0 0 1-3.067 1.734q-1.8.6-3.6.8c-.267 0-.667 0-.933.133h-26.4c-.934-.133-1.734-.267-2.667-.4a9.95 9.95 0 0 1-4.933-3.2 8.7 8.7 0 0 1-1.734-3.067C.4 40.133 0 37.067 0 36.8M13.867 6.667c-1.6.4-3.067 1.066-4.267 2.133-1.733 1.467-2.667 3.467-3.067 5.6-.266 1.333-.266 2.667-.266 4v7.067c0 2 0 4 .133 6 0 1.2.133 2.4.533 3.466a9.6 9.6 0 0 0 2.8 4.4c1.334 1.2 2.8 1.867 4.534 2.134 1.333.266 15.466.266 17.2.266q1.4 0 2.8-.4c1.6-.4 3.066-1.066 4.266-2.133 1.734-1.467 2.667-3.467 3.067-5.6.267-1.333.267-2.667.267-4v-7.2c0-2 0-3.867-.134-5.867q0-1.4-.4-2.8c-.4-1.6-1.066-3.066-2.133-4.266C37.733 7.733 35.867 6.8 33.6 6.4c-2.133-.267-18.4 0-19.733.267"></path><path d="M28.933 9.333c1.334 0 2.8 0 4.134.267 1.333.267 2.533.8 3.6 1.733.933.934 1.466 2.134 1.733 3.6.133.934.267 2 .267 2.934v11.466c0 1.334 0 2.8-.4 4.134-.267 1.2-.8 2.4-1.734 3.2-.933.933-2.133 1.466-3.466 1.6-1.067.266-2 .4-3.067.4H18.533c-1.466 0-3.066 0-4.4-.4q-1.6-.4-2.8-1.6c-.8-.8-1.333-1.867-1.6-3.067-.133-.8-.266-1.6-.266-2.4-.267-4.267-.134-8.533-.134-12.667 0-1.2 0-2.4.267-3.6.267-1.333.8-2.533 1.733-3.6 2.134-2.133 5.334-1.866 8.134-2h9.466M14.8 24c0 5.2 4.4 9.467 9.733 9.067 4.534-.267 8.8-4.267 8.534-9.734-.267-4.533-4.267-8.8-9.734-8.4-4.533.267-8.4 4.134-8.533 9.067m16.533-9.333c0 1.066.934 2 2.134 2s2.133-1.067 2-2.134c0-1.2-1.067-2.133-2.267-2-.933 0-1.867.934-1.867 2.134"></path><path d="M30 24c.133 3.2-2.667 6-6 6-3.2 0-5.867-2.667-5.867-6 0-3.2 2.8-6 6-5.867C27.2 18.133 30 20.8 30 24"></path></symbol><symbol id="k_call" viewBox="0 0 37 35"><path d="M28.677 34.064h-.4c-.1 0-.2 0-.3-.1-.5-.1-1.1-.2-1.7-.4-5.9-2.3-11.1-5.4-15.3-9.2-4.3-3.9-7.8-8.6-10.2-14.1-1-2.1-1-4.2-.2-6 .9-1.8 2.6-3.2 5-4 1.1-.3 2.1-.4 3.1 0 2.3.7 7.1 6.7 7.3 8.9s-1.6 3.4-2.4 3.9-1 .9-.4 2.1c1.5 2.9 4 5.2 7.5 6.6.4.2.7.2.9.2s.5-.1.7-.5c1.4-2 3.1-2.5 4.2-2.5 1.2 0 2.4.4 3.7 1.2l.6.4c.9.6 1.9 1.2 2.8 1.9.2.1.3.2.5.4 1.3.9 3.6 2.5 2.5 5.5-1.2 3.1-4.8 5.7-7.9 5.7m-21.5-32.1c-.3 0-.7.1-1 .2-1.8.6-3.2 1.6-3.8 3-.6 1.2-.5 2.7.2 4.3 2.4 5.2 5.6 9.7 9.8 13.5 4 3.6 9 6.6 14.7 8.8.4.2.9.3 1.3.3.2 0 .3 0 .3.1 2.3-.1 5.2-2.2 6-4.4.5-1.5-.2-2.1-1.7-3.2-.2-.1-.4-.3-.5-.4l-2.7-1.8-.6-.4c-1-.6-1.9-1-2.6-.9-1 0-1.8.6-2.6 1.6-.7 1.1-1.7 1.3-2.4 1.3-.5 0-1.1-.1-1.7-.4-4-1.6-6.9-4.2-8.5-7.6-1-2-.6-3.5 1.1-4.7.8-.5 1.6-1.1 1.5-2.1-.1-1.5-4.4-6.8-5.9-7.2z"></path></symbol><symbol id="k_mail" viewBox="0 0 35 24"><path d="M31 0H3.3C1.5 0 0 1.5 0 3.3v17.4C0 22.5 1.5 24 3.3 24H31c1.8 0 3.3-1.5 3.3-3.3V3.3C34.3 1.5 32.8 0 31 0m0 1.9L18.2 14.6c-.3.3-.7.4-1.1.4s-.8-.1-1.1-.4L3.2 1.9zm-29.1 19V3.2l9.4 9.3zm1.4 1.2 9.3-8.4 2.2 2.1c1.3 1.3 3.4 1.3 4.7 0l2.2-2.2L31 22H3.3zm29.1-1.2L23 12.4l9.4-9.3z"></path></symbol><symbol id="k_map" viewBox="0 0 31 45"><path d="M15.5 44.2c-.6 0-1.3-.3-1.7-.9l-.1-.3C9.6 37.1 0 22.4 0 15.5 0 7 7 0 15.5 0S31 7 31 15.5c0 8-12.8 26.1-13.8 27.6-.3.6-1.1 1.1-1.7 1.1m0-42.2C8.1 2 2 8.1 2 15.5c0 4.4 5 14.3 13.3 26.4l.2.2.1-.1C16.7 40.6 29 22.6 29 15.5 29 8.1 23 2 15.5 2m0 20.2c-4.1 0-7.5-3.4-7.5-7.5s3.4-7.5 7.5-7.5 7.5 3.4 7.5 7.5-3.4 7.5-7.5 7.5m0-13c-3 0-5.5 2.5-5.5 5.5s2.5 5.5 5.5 5.5 5.5-2.5 5.5-5.5-2.5-5.5-5.5-5.5"></path></symbol><symbol id="k_viber" viewBox="0 0 41 41"><path d="M20.4 40.7c-3.8 0-7.5-1-10.7-3l-6.8 2.1c-.3.1-.7 0-1-.2-.3-.3-.4-.6-.3-1 .8-2.8 1.6-6 1.8-6.9C1.2 28.3 0 24.4 0 20.4 0 9.1 9.1 0 20.4 0s20.4 9.1 20.4 20.4-9.2 20.3-20.4 20.3M9.8 35.6c.2 0 .4.1.5.2 3 1.9 6.4 3 10 3 10.1 0 18.4-8.2 18.4-18.4S30.5 2 20.4 2C10.2 2 2 10.2 2 20.4c0 3.7 1.1 7.3 3.2 10.4v.1c0 .1.1.2.1.3v.3c0 .7-.3 2.2-1.3 5.9l5.5-1.7c.1-.1.2-.1.3-.1"></path><path d="M27.1 19.4c0-2.8-2.6-5.3-5.8-5.6h-.7c-.6 0-.8.4-.9.7 0 .2 0 .5.1.6.2.3.6.3.9.3h.2c2.9.6 3.8 1.5 4.3 4.1v.2c0 .3.1 1 .8 1h.2c.7-.1.7-.7.7-1 .2-.1.2-.2.2-.3 0 .1 0 0 0 0"></path><path d="M20.4 12.8h.2c4.7.6 6.9 2.6 7.5 7v.3c0 .3 0 1.1.9 1.1.3 0 .5-.1.6-.2.3-.3.2-.6.2-.9v-.2c0-4.5-4.2-8.5-9-8.6h-.6000000000000001c-.8 0-.9.5-.9.8.1.6.8.7 1.1.7M28 25.5c-.1-.1-.2-.1-.3-.2-.5-.4-1.1-.7-1.6-1.1-.1-.1-.2-.1-.3-.2-.7-.4-1.3-.6-1.9-.6-.8 0-1.4.4-2 1.2-.2.4-.5.5-.9.5-.2 0-.5-.1-.7-.2-2.2-.9-3.8-2.3-4.7-4.1-.4-.9-.3-1.5.4-2 .4-.3 1.2-.8 1.1-1.8-.1-1.1-2.7-4.4-3.8-4.7-.5-.2-1-.1-1.4 0-1.3.4-2.1 1.1-2.6 2-.4.9-.4 1.9.1 3 1.4 3.1 3.4 5.8 5.8 8s5.3 3.9 8.7 5.2c.3.1.6.2.9.2h.30000000000000004c1.6 0 3.5-1.4 4-3 .6-1-.3-1.7-1.1-2.2"></path><path fill="#370475" d="M21.2 16.3c-.3 0-.8 0-1 .6q-.15.45 0 .6c.2.3.5.3.8.4 1.1.1 1.6.7 1.7 1.7.1.5.4.8.8.8h.1c.5-.1.8-.4.7-1.1 0-.7-.4-1.5-1.1-2.1-.5-.6-1.3-.9-2-.9"></path></symbol><symbol id="logo_footer" viewBox="0 0 277 47"><path fill="#E37C1D" d="M108.421 15.542h-14.9v4.9h12.8v7.5h-12.8v11.4h-9.7v-31.8h24.5zM143.921 23.441c0 9.9-6.4 16.6-15.9 16.6-9.7 0-16.2-6.6-16.2-16.6 0-10.1 6.5-16.6 16.3-16.6 9.5-.1 15.8 6.6 15.8 16.6m-22.2-.2c0 5.7 2.3 8.9 6.3 8.9s6.1-3.2 6.1-9.2c0-5.3-2.3-8.5-6.1-8.5-4 .1-6.3 3.4-6.3 8.8"></path><path fill="#E37C1D" d="m165.721 22.442 11.3 16.8h-11.7l-3.1-5.2c-.9-1.5-1.6-3-2.3-4.5-.8 1.6-1.6 3.2-2.5 4.7l-3 5h-11.3l11.5-16.8-10.5-14.9h11.4l2.4 4.2c.9 1.5 1.6 3.1 2.4 4.7.7-1.4 1.3-2.8 2.1-4.2l2.6-4.7h10.8z"></path><path fill="#000" d="M189.621 19.342c4.1 0 7 1.9 7 6.2 0 4.2-3 6.1-6.8 6.1h-4.3v6.9h-4.2v-19.2zm-4 8.9h3.7c1.9 0 3.3-.6 3.3-2.7 0-2-1.4-2.8-3.3-2.8h-3.8v5.5zM216.421 38.442h-4.2v-8.2h-7.8v8.2h-4.2v-19.1h4.2v7.2h7.8v-7.2h4.2zM239.121 28.942c0 6-3.8 10-9.4 10-5.7 0-9.5-4-9.5-10 0-6.1 3.8-10 9.5-10 5.6-.1 9.4 4 9.4 10m-14.6-.1c0 4.1 2 6.6 5.2 6.6s5.1-2.5 5.1-6.6c0-4-2-6.5-5.2-6.5-3.1 0-5.1 2.5-5.1 6.5M256.321 22.842h-5.8v15.6h-4.2v-15.6h-5.8v-3.6h15.7v3.6zM276.621 28.942c0 6-3.8 10-9.4 10-5.7 0-9.5-4-9.5-10 0-6.1 3.8-10 9.5-10 5.6-.1 9.4 4 9.4 10m-14.6-.1c0 4.1 2 6.6 5.2 6.6s5.1-2.5 5.1-6.6c0-4-2-6.5-5.2-6.5-3.1 0-5.1 2.5-5.1 6.5"></path><path stroke="#000" stroke-linecap="round" stroke-linejoin="round" stroke-miterlimit="10" stroke-width="2.042" d="M61.22 5.441h5.9c1.4 0 2.6 1.1 2.6 2.6v31.9c0 1.4-1.1 2.6-2.6 2.6h-22.3M28.42 42.541H3.62c-1.4 0-2.6-1.2-2.6-2.6v-31.9c0-1.4 1.1-2.6 2.6-2.6h9"></path><path fill="#000" d="M11.72 5.441h-7.9l.7-2.4c.3-.6.9-1.1 1.6-1.1h3.3c.7 0 1.3.5 1.6 1.2zM64.92 11.842c0 .6-.5 1-1 1h-2.5c-.6 0-1-.5-1-1v-1.1c0-.6.5-1 1-1h2.5c.6 0 1 .5 1 1z"></path><path fill="#fff" d="M36.62 13.141c0 .8 0 1.6-.1 2.5-.1.8-.3 1.6-.5 2.4-.1.4-.2.8-.2 1.2.1.3-.4 1.6-.3.9.1-.8.3-1.6.4-2.4s0-1.6-.2-2.4c-.2-.7-.6-1.3-1-1.9-.8-1.1-1.9-2-3.2-2.7-1.3-.8-2.8-1.3-4.3-1.6s-3.1-.4-4.7-.1c-1.4.3-2.8.9-3.9 1.8-.3.2-.6.5-.8.8-.1.2-.3.3-.4.4s-.1.2-.2.3-.1.2-.2.2c-.1-.1.2-.4.2-.4.1-.2.2-.3.4-.5.2-.3.5-.6.7-.8 1-1 2.3-1.6 3.6-2 1.5-.4 3.1-.4 4.7-.2l2.4.6c.7.2 1.4.5 2.2.8.1.1.2.1.3.1h.1c0-.1-.1-.1-.1-.1-.3-.2-.6-.3-.9-.5-.4-.2-.7-.4-1.1-.5-.4-.2-.8-.3-1.1-.4-.8-.3-1.5-.4-2.3-.5-.5-.2-.9-.2-1.3-.3s-.8-.1-1.2-.1c-.2 0-.4.1-.6.1h-.3c-.1 0-.2 0-.2-.1s.3-.2.3-.2c.2-.1.4-.1.6-.1.4 0 .8-.1 1.2-.1.4-.1.8-.1 1.2-.1 1.6 0 3.2.3 4.7.9.4.2.7.3 1 .5l.3.3s.1.1.2.1.1.1.1-.1h-.1c-.1-.1-.2-.1-.2-.2-.2-.1-.3-.2-.5-.3-.4-.2-.7-.5-1-.7-.3-.3-.7-.5-1-.7-.1-.1-.3-.2-.5-.3-.1-.1-.2-.1-.3-.2-.1 0-.1-.1-.2-.1-.1-.1-.1-.1 0-.1h.2c.2.1.4.1.6.2.4.1.8.3 1.1.4 1.4.6 2.7 1.3 3.8 2.3.6.5 1.1 1 1.6 1.6.1.2.3.3.4.4 0 0 .1.2.2.1s-.1-.2-.1-.2c-.2-.3-.5-.6-.7-.9-.5-.6-1-1.2-1.6-1.7s-1.2-1-1.8-1.4q-1.95-1.2-4.2-1.8c-.8-.2-1.5-.3-2.4-.4-.7-.1-1.6-.1-2.4 0-.4.1-.7.2-1.1.2-.1 0-.2.1-.3 0s.2-.2.2-.2l1.2-.3c.4-.1.8-.2 1.2-.2.4-.1.8 0 1.2 0h.3c.1 0 .2 0 .2-.1s-.2-.1-.2-.1h-.3c-.8-.1-1.6-.1-2.4-.1-1.5.1-3.1.5-4.5 1.2-1.3.8-2.4 1.6-3.5 2.7-.5.6-1 1.1-1.4 1.8-.2.3-.4.7-.6 1-.2.4-.3.7-.4 1.1 0 .1-.1.2-.1.2-.1.1-.1.1-.1 0s0-.2.1-.3c.1-.4.2-.7.4-1.1.3-.7.6-1.4 1-2q1.2-1.8 3-3c1.2-.8 2.6-1.4 4-1.6.9-.2 1.9-.3 2.9-.2s1.9.3 2.5.5c.1 0 .3.1.4.1s.1 0 .2.1c.1 0 .1.1.2 0 2.2.6 7.2 3.5 9.4 7 0 .4.1.9.1 1.5"></path><path fill="#E27C1D" d="M59.02 15.241c-.2-.7-.5-1.4-.9-2-.2-.3-.4-.6-.7-.9-.2-.3-.5-.5-.7-.7l-.1-.1c-.3-.3-.5-.6-.7-.9s-.4-.7-.3-1.1c0-.2.1-.3 0-.5-.1-.1-.1-.1-.2-.1s-.2-.1-.2-.1c-.2-.2-.2-.6-.2-.9 0-.2 0-.4-.1-.6s-.2-.3-.3-.4-.3-.2-.3-.4c-.1-.2 0-.3.1-.5s.2-.3.3-.4c.2-.2.3-.3.5-.4.3-.3.6-.5 1-.7.3-.2.6-.4.9-.4.2 0 .3 0 .4.1.2.1.2.2.3.4.1.4.1.7 0 1.1s-.1.8-.2 1.2c-.1.8-.3 1.6-.4 2.4l-.3 1.2c-.1.2-.1.4-.2.6-.1.1-.1.3 0 .4s.3 0 .4-.1c.2-.1.3-.2.4-.3.2-.3.3-.6.4-1 .2-.8.4-1.5.6-2.4.3-1.6.4-3.3.3-4.9-.1-.4-.1-.8-.1-1.2-.1-.4-.1-.7-.3-1s-.4-.4-.7-.4c-.4.1-.6.4-.9.6-.3.3-.5.6-.8.8s-.6.5-.9.7c-.6.4-1.3.8-2 1-.8.3-1.5.4-2.3.5s-1.6.1-2.4.1c-.8-.1-1.6-.2-2.5-.3-.8-.1-1.6-.2-2.5-.4-1.5-.2-3-.6-4.4-1.3-.7-.3-1.4-.7-2-1.1-.2-.1-.3-.2-.5-.3s-.4-.3-.5-.4c-.2-.1-.5-.2-.7-.1s-.3.4-.3.5c-.1.2-.1.4-.2.6-.2.8-.2 1.6-.1 2.4.2 1.6.7 3.1 1.1 4.7.3 1.1.5 2.1.6 3.2.1.5.1 1 .1 1.6 0 .8 0 1.6-.1 2.5-.1.8-.3 1.6-.5 2.4-.1.4-.2.8-.2 1.2.1.3-.4 1.6-.3.9.1-.8.3-1.6.4-2.4s0-1.6-.2-2.4c-.2-.7-.6-1.3-1-1.9-.8-1.1-1.9-2-3.2-2.7-1.3-.8-2.8-1.3-4.3-1.6s-3.1-.4-4.7-.1c-1.4.3-2.8.9-3.9 1.8-.3.2-.6.5-.8.8-.1.2-.3.3-.4.4s-.1.2-.2.3-.1.2-.2.2c-.1-.1.2-.4.2-.4.1-.2.2-.3.4-.5.2-.3.5-.6.7-.8 1-1 2.3-1.6 3.6-2 1.5-.4 3.1-.4 4.7-.2l2.4.6c.7.2 1.4.5 2.2.8.1.1.2.1.3.1h.1c0-.1-.1-.1-.1-.1-.3-.2-.6-.3-.9-.5-.4-.2-.7-.4-1.1-.5-.4-.2-.8-.3-1.1-.4-.8-.3-1.5-.4-2.3-.5-.4-.1-.8-.1-1.2-.2s-.8-.1-1.2-.1c-.2 0-.4.1-.6.1h-.3c-.1 0-.2 0-.2-.1s.3-.2.3-.2c.2-.1.4-.1.6-.1.4 0 .8-.1 1.2-.1.4-.1.8-.1 1.2-.1 1.6 0 3.2.3 4.7.9.4.2.7.3 1 .5l.3.3s.1.1.2.1.1.1.1-.1h-.1c-.1-.1-.2-.1-.2-.2-.2-.1-.3-.2-.5-.3-.4-.2-.7-.5-1-.7-.3-.3-.7-.5-1-.7-.1-.1-.3-.2-.5-.3-.1-.1-.2-.1-.3-.2-.1 0-.1-.1-.2-.1-.1-.1-.1-.1 0-.1h.2c.2.1.4.1.6.2.4.1.8.3 1.1.4 1.4.6 2.7 1.3 3.8 2.3.6.5 1.1 1 1.6 1.6.1.2.3.3.4.4 0 0 .1.2.2.1s-.1-.2-.1-.2c-.2-.3-.5-.6-.7-.9-.5-.6-1-1.2-1.6-1.7s-1.2-1-1.8-1.4q-1.95-1.2-4.2-1.8c-.8-.2-1.5-.3-2.4-.4-.7-.1-1.6-.1-2.4 0-.4.1-.7.2-1.1.2-.1 0-.2.1-.3 0s.2-.2.2-.2l1.2-.3c.4-.1.8-.2 1.2-.2.4-.1.8 0 1.2 0h.3c.1 0 .2 0 .2-.1s-.2-.1-.2-.1h-.3c-.8-.1-1.6-.1-2.4-.1-1.5.1-3.1.5-4.5 1.2-1.3.8-2.4 1.6-3.5 2.7-.5.6-1 1.1-1.4 1.8-.2.3-.4.7-.6 1-.2.4-.3.7-.4 1.1 0 .1-.1.2-.1.2-.1.1-.1.1-.1 0s0-.2.1-.3c.1-.4.2-.7.4-1.1.3-.7.6-1.4 1-2q1.2-1.8 3-3c1.2-.8 2.6-1.4 4-1.6.9-.2 1.9-.3 2.9-.2q.9 0 1.8.3c.3.1.5.1.7.2.1 0 .3.1.4.1s.1 0 .2.1c.1 0 .1.1.2 0 .1-.2-.1-.2-.1-.2-.3-.1-.6-.2-.8-.3-.5-.1-.9-.2-1.2-.2-1.3-.3-2.6-.3-3.9-.1h-.3c-.2 0-.3.1-.5.1-1.4.3-2.8.9-4 1.7-.8.6-1.6 1.2-2.2 1.9l-.2.2c-.3.3-.5.6-.7.9-.9 1.2-1.5 2.6-1.9 4-.4 1.5-.5 3.2-.3 4.7q.3 2.25 1.2 4.5c.3.6.6 1.2.9 1.7 1.2 2 2.7 3.9 4.4 5.6 1.2 1.2 2.4 2.3 3.5 3.4l3.6 3.3c2.6 2.3 5.3 4.6 7.8 6.8.4.4 2.5 1.9 3.5 2.8.4.4.9.8 1.4 1s.6.1.8-.3l1.2-1.2c.4-.4.8-.8 1.2-1.3 1.5-1.6 3.1-3.1 4.7-4.6 1.2-1.1 2.4-2.3 3.6-3.4 1.1-1.1 2.3-2.3 3.3-3.5s2-2.4 2.9-3.7 1.7-2.6 2.4-4 1.2-2.9 1.5-4.4c.5-1.6.5-3.2.1-4.8m-18 26.1c-.1.5-.3 1-.5 1.5-.5 1-1.3 1.9-2.3 2.6-.3.3-.6.5-.9.2 0-.1-.6-.4-.7-.5-.3-.2-.5-.4-.8-.6-.5-.4-.9-.7-1.3-1-.9-.7-1.7-1.4-2.5-2.2-.5-.4-1-.8-1.5-1.3-.5-.4-1-.7-1.4-1.2h.1c.8-.4 1.6-.7 2.5-.9.3-.1.4-.1.3-.4q-.3-.6-.3-1.2c.1-.7.8 0 1 .2.3.2.7.4 1 .6.2.1.8.6.7.1 0-.1-.1-.2 0-.3.1-.7 1.2.6 1.3.8s.2.2.2 0c.1-.2-.1-.6-.1-.8-.1-.5-.1-1.1-.2-1.6v-.2c.2-.3 1.3 1.1 1.5 1.3.1.1.2.3.4.3.1 0 .2-.1.3-.2l.6-.6c.2-.2.4-.2.4.1.1.4.1.8.1 1.2 0 .2-.1.5.1.7s.6-.4.8-.5c.4-.2.7-.2.9-.5.1-.1.1-.2.2-.2.2-.1.2.1.2.2.1.5 0 1 .1 1.5-.2 1.1-.1 1.9-.2 2.9"></path><path fill="#fff" d="M57.82 5.841c-.1.4-.1.8-.2 1.2-.1.8-.3 1.6-.4 2.4l-.3 1.2c-.1.2-.1.4-.2.6-.1.1-.1.3 0 .4l-.1-.1c-.3-.3-.5-.6-.7-.9s-.4-.7-.3-1.1c0-.2.1-.3 0-.5-.1-.1-.1-.1-.2-.1s-.2-.1-.2-.1c-.2-.2-.2-.6-.2-.9 0-.2 0-.4-.1-.6s-.2-.3-.3-.4-.3-.2-.3-.4c-.1-.2 0-.3.1-.5s.2-.3.3-.4c.2-.2.3-.3.5-.4.3-.3.6-.5 1-.7.3-.2.6-.4.9-.4.2 0 .3 0 .4.1.2.1.2.2.3.4.1.5 0 .8 0 1.2M41.02 41.341c-.1.5-.3 1-.5 1.5-.5 1-1.3 1.9-2.3 2.6-.3.3-.6.5-.9.2 0-.1-.6-.4-.7-.5-.3-.2-.5-.4-.8-.6-.5-.4-.9-.7-1.3-1-.9-.7-1.7-1.4-2.5-2.2-.5-.4-1-.8-1.5-1.3-.5-.4-1-.7-1.4-1.2h.1c.8-.4 1.6-.7 2.5-.9.3-.1.4-.1.3-.4q-.3-.6-.3-1.2c.1-.7.8 0 1 .2.3.2.7.4 1 .6.2.1.8.6.7.1 0-.1-.1-.2 0-.3.1-.7 1.2.6 1.3.8s.2.2.2 0c.1-.2-.1-.6-.1-.8-.1-.5-.1-1.1-.2-1.6v-.2c.2-.3 1.3 1.1 1.5 1.3.1.1.2.3.4.3.1 0 .2-.1.3-.2l.6-.6c.2-.2.4-.2.4.1.1.4.1.8.1 1.2 0 .2-.1.5.1.7s.6-.4.8-.5c.4-.2.7-.2.9-.5.1-.1.1-.2.2-.2.2-.1.2.1.2.2.1.5 0 1 .1 1.5-.2 1.1-.1 1.9-.2 2.9"></path><path fill="#fff" d="M36.02 25.741c-.9-.6-1.8-1.1-2.7-1.6-2.3-1-4.6-1.6-7-2.3-1.4-.4-2.8-.7-4-1.4-1.2-.8-2.2-2-2.2-3.5-.1-1.4 1.2-2.9 2.6-2.8-1.4-.3-2.7.9-2.9 2.4-.2 2.2 1.6 3.7 3.3 4.6 1.8 1 3.9 1.4 5.9 2 2.1.6 4.2 1.3 6 2.7 3.4 2.5 5.4 6.6 6 10.7.1.3.1.6.1.9 0 .2.1.3.1.4 0-.1.3-.5.3-.6.1-.3 0-.5.1-.8.1-2 1.8-3.1 3.2-4.2 1.7-1.3 3.2-3.1 4.4-5 0-.1.1-.1.1-.1 1.2-2 2.1-4.5 1.5-6.9 1.5-.9 3.4-1.1 5.2-.7-.1-1.5-.3-3.2-1.4-4-1.2-.9-3-.5-4.4.3-3.2 1.8-5.4 5.3-8.8 6.6 2.7-.1 4.9-2.2 7.6-2.4-2.7 1.6-5.5 2.5-8.5 3.3-1.1.3-.9 1.3-1 2.3 0 1-.2 2-.3 3-1-1.1-2-2-3.2-2.9m12-11.7c0-.1 0-.1-.1-.1s-.2-.1-.3-.1c-.1-.1-.2-.1-.3-.1-.2-.1-.4-.1-.5-.2-.4-.1-.8-.1-1.1 0-.4.1-.7.2-1 .5-.5.5-.8 1.2-1.1 1.7-.1.1-.2.2-.2.3-.1.1-.2.3-.2.4s-.1.2 0 .2c.3.2 4.7-2.5 4.8-2.6 0 0-.1 0 0 0m-10.7-3.5c-.2-.2-.4-.1-.4.2 0 .2.4 3.2.5 3.2s.3-.4.3-.5c.1-.2.2-.4.3-.5.2-.3.3-.6.4-.9s.2-.5-.1-.8c0-.1-.1-.1-.1-.1l-.1-.1c-.3-.2-.5-.3-.8-.5"></path><path fill="#151B19" d="M37.42 11.242c-.1-.1-.2-.1-.2.1 0 .1.3 1.8.3 1.8.1-.2.3-.4.4-.6.2-.4.4-.7 0-1-.1 0-.3-.2-.5-.3m9.3 3.2q0-.15 0 0c-.3-.2-.5-.2-.8-.3-.5-.1-1 .2-1.2.6-.2.3-.4.6-.5.9 0 0-.1.1 0 .1.1.1 2.4-1.4 2.5-1.3"></path><path fill="#fff" d="M37.12 8.142c.1.1.1.2.1.4.1.1.2.1.4.2l.1-.1c.1-.2.2-.3.3-.4.2-.3.4-.6.3-.9s.6-1.1.6-1.4c-.1-.4-.3-.5-.2-.6.1-.2.3-.1.5-.3l.3-.3c.1-.2 0-.3-.1-.4l-.4-.4c-.1-.1-.3-.2-.4-.4-.3-.2-.6-.4-.8-.6-.3-.2-.5-.3-.8-.4-.1 0-.3 0-.4.1s-.2.2-.2.3c-.1.3-.1.7 0 1 .1.4.1.7.2 1.1.1.7.2 1.4.4 2.1-.1.2 0 .6.1 1"></path><path fill="#1B201C" d="m39.32 21.442-.2-.2c-.2-.2-.4-.3-.6-.5-.7-.5-1.4-1.1-2-1.7-.1-.1-.2-.2-.3-.2-.4-.2-.4-.1-.6.3-.1.2-.2.6-.2.8 0 .4 0 .8.2 1.1.3.5.8.9 1.3 1 .3.1.6.1.9.2.4.1.7.1 1 0 .1 0 .2-.1.3-.1s.4-.1.4-.2c.2-.1 0-.3-.2-.5"></path></symbol><symbol id="logo_header" viewBox="0 0 249 91"><path fill="#fff" d="M246.5 10.753H112v72.6h134.5z"></path><path fill="#FF7D00" d="M25.2 23.053H10.4v4.9h12.8v7.5H10.4v11.4H.7v-31.8h24.5zM60.8 30.953c0 9.9-6.4 16.6-15.9 16.6-9.7 0-16.2-6.6-16.2-16.6 0-10.1 6.5-16.6 16.3-16.6 9.4-.1 15.8 6.6 15.8 16.6m-22.3-.2c0 5.7 2.3 8.9 6.3 8.9s6.1-3.2 6.1-9.2c0-5.3-2.3-8.5-6.1-8.5-3.9.1-6.3 3.4-6.3 8.8"></path><path fill="#FF7D00" d="m82.5 29.953 11.3 16.8H82.1l-3.1-5.2c-.9-1.5-1.6-3-2.3-4.5-.8 1.6-1.6 3.2-2.5 4.7l-3 5H59.9l11.6-16.8-10.5-14.9h11.4l2.4 4.2c.9 1.5 1.6 3.1 2.4 4.7.7-1.4 1.3-2.8 2.1-4.2l2.6-4.7h10.8z"></path><path fill="#000" d="M8.2 56.553c4.1 0 7 1.9 7 6.2 0 4.2-3 6.1-6.8 6.1H4.2v6.9H0v-19.2zm-4 8.9h3.7c1.9 0 3.3-.6 3.3-2.7 0-2-1.4-2.8-3.3-2.8H4.2zM35 75.653h-4.2v-8.2H23v8.2h-4.2v-19.1H23v7.2h7.8v-7.2H35zM57.7 66.153c0 6-3.8 10-9.4 10-5.7 0-9.5-4-9.5-10 0-6.1 3.8-10 9.5-10 5.6-.1 9.4 4 9.4 10m-14.6-.1c0 4.1 2 6.6 5.2 6.6s5.1-2.5 5.1-6.6c0-4-2-6.5-5.2-6.5-3.1 0-5.1 2.5-5.1 6.5M74.9 60.153h-5.8v15.6h-4.2v-15.6h-5.8v-3.6h15.7v3.6zM95.2 66.153c0 6-3.8 10-9.4 10-5.7 0-9.5-4-9.5-10 0-6.1 3.8-10 9.5-10 5.7-.1 9.4 4 9.4 10m-14.6-.1c0 4.1 2 6.6 5.2 6.6s5.1-2.5 5.1-6.6c0-4-2-6.5-5.2-6.5-3.1 0-5.1 2.5-5.1 6.5"></path><path fill="#1A1D1E" fill-rule="evenodd" d="M160.2 43.053c1.2 1 2.9 1.3 4.3.9-1.5.1-3 0-4.3-.9 0-.1-.1 0 0 0" clip-rule="evenodd"></path><path fill="#1B1918" fill-rule="evenodd" d="M197.9 30.553c-1.3-1-.9-5 .3-7.8s3.1-4.2 5.9-3.9 6.6 2.4 6.9 4.1-2.8 3-5.8 4.7-6 3.8-7.3 2.9" clip-rule="evenodd"></path><path fill="#FF7D00" fill-rule="evenodd" d="M225.5 29.753c-.4-1.4-1-2.8-1.7-4-.4-.6-.8-1.2-1.3-1.7-.5-.6-1-1.1-1.5-1.6s-1-1.1-1.4-1.7-.7-1.3-.6-2.1c0-.3.2-.6 0-.9-.1-.1-.2-.1-.4-.2-.1 0-.3-.1-.4-.2-.5-.5-.5-1.3-.5-1.9 0-.4 0-.7-.1-1.1-.1-.3-.3-.6-.5-.8s-.5-.4-.6-.7 0-.6.1-.9.3-.5.6-.7c.3-.3.6-.5.9-.7.6-.5 1.2-.9 1.9-1.3.5-.4 1.2-.7 1.8-.8.3 0 .6 0 .8.1.3.2.4.4.5.7.2.7.1 1.4 0 2.1l-.3 2.4c-.2 1.6-.5 3.2-.8 4.7-.2.8-.3 1.5-.5 2.3-.1.4-.2.7-.3 1.1-.1.2-.2.6 0 .8.2.1.5 0 .7-.1.3-.1.5-.3.7-.6.4-.5.6-1.2.8-1.9.4-1.5.8-3 1.1-4.6.6-3.2.8-6.4.5-9.6-.1-.8-.1-1.6-.2-2.4-.1-.7-.2-1.4-.5-2s-.7-1.1-1.4-1-1.2.7-1.7 1.1c-.5.5-1 1.1-1.5 1.6s-1.1 1-1.7 1.4c-1.2.8-2.5 1.5-3.9 2-1.5.5-3 .8-4.5 1q-2.4.15-4.8 0c-1.6-.1-3.2-.3-4.8-.5s-3.2-.4-4.8-.7c-3-.5-6-1.3-8.8-2.6-1.4-.6-2.7-1.4-4-2.2l-.9-.6c-.3-.2-.6-.5-.9-.7-.4-.2-.9-.4-1.3-.1-.3.2-.5.7-.6 1l-.3 1.2c-.3 1.5-.3 3.1-.1 4.7.3 3.1 1.3 6.1 2.1 9.1.8 3.1 1.3 6.2 1.4 9.4 0 1.6 0 3.2-.2 4.8s-.5 3.1-.9 4.6c-.2.7-.4 1.5-.3 2.3.1.6.9.4 1.4.8.5.5 1.1.8 1.6 1.3.6.4.6 1.8 1 2.4.2.3.5.6.7 1 .1.2.3.4.4.6-.3 0-.7-.2-.9-.2-.7-.1-1.1 0-1.8-.2-.6-.2-.6-.5-1-1-.9-1-2.1-1.6-2-2.9.1-1.6.6-3.1.7-4.7s0-3.1-.4-4.6c-.4-1.4-1.1-2.6-1.9-3.8-1.6-2.2-3.8-4-6.2-5.3-2.6-1.5-5.4-2.5-8.3-3.1-3-.6-6.1-.7-9.1-.1-2.8.6-5.4 1.8-7.7 3.5-.6.4-1.1.9-1.6 1.5-.2.3-.5.5-.7.8-.1.2-.2.3-.3.5-.1.1-.2.3-.3.3-.2-.1.3-.7.3-.8.2-.3.4-.6.7-.9.4-.6.9-1.1 1.4-1.6 1.9-1.9 4.4-3.2 7-3.9 3-.8 6.1-.8 9.1-.3 1.5.3 3.1.7 4.6 1.1 1.4.4 2.8.9 4.2 1.6.2.1.4.2.5.2h.2c0-.1-.1-.2-.2-.2-.5-.4-1.2-.6-1.8-.9-.7-.3-1.4-.7-2.2-1-.7-.3-1.5-.5-2.2-.8-1.5-.5-3-.8-4.5-1-.8-.1-1.5-.2-2.3-.3s-1.5-.1-2.3-.1c-.4 0-.8.1-1.2.1h-.5c-.1 0-.3 0-.3-.1 0-.2.5-.3.5-.3.4-.1.7-.1 1.1-.1.8 0 1.6-.2 2.3-.2.8-.1 1.6-.1 2.4-.1 3.1 0 6.3.6 9.2 1.7.7.3 1.4.6 2 1 .2.1.4.2.5.3s.2.1.3.2c.1 0 .2.1.2-.1 0-.1-.1-.1-.1-.2-.1-.1-.3-.2-.4-.3-.3-.2-.6-.4-1-.6-.7-.4-1.3-.9-2-1.3-.6-.5-1.3-.9-1.9-1.4-.3-.2-.6-.4-1-.6-.2-.1-.3-.2-.5-.3-.1 0-.2-.1-.3-.2s-.1-.2 0-.2h.3c.4.1.7.2 1.1.4.7.2 1.5.5 2.2.8 2.7 1.1 5.3 2.6 7.5 4.4 1.2.9 2.2 1.9 3.2 3.1.2.3.5.6.7.8 0 0 .2.3.3.2s-.1-.3-.2-.4c-.4-.6-.9-1.2-1.4-1.7-1-1.2-2-2.3-3.2-3.4-1.1-1-2.4-1.9-3.6-2.7-2.5-1.6-5.2-2.8-8.1-3.5-1.5-.4-3-.7-4.6-.8-1.5-.2-3.1-.3-4.7-.1-.7.1-1.4.3-2.2.3-.1 0-.3.1-.5 0s.3-.3.4-.3c.8-.2 1.5-.3 2.3-.5s1.6-.3 2.3-.4c.8-.1 1.6 0 2.4 0h.6c.1 0 .3 0 .3-.1s-.3-.2-.4-.2h-.5c-1.6-.1-3.1-.2-4.7-.1-3 .2-6 1-8.7 2.3-2.6 1.3-4.9 2.9-6.9 5-1 1.1-2 2.2-2.8 3.5-.4.6-.8 1.3-1.1 2s-.5 1.4-.8 2.1c0 .1-.1.3-.2.4s-.1.1-.2 0c0-.1 0-.3.1-.5.2-.7.4-1.4.7-2.1.5-1.4 1.1-2.8 2-4 1.5-2.3 3.5-4.3 5.8-5.8 2.4-1.6 5.1-2.7 7.9-3.2 3-.6 6.3-.6 9.3.1.8.2 1.5.4 2.2.6.1 0 .2 0 .3.1.1 0 .2.1.3 0 .2-.1-.2-.2-.2-.2-.5-.2-1.1-.4-1.6-.5-.8-.2-1.6-.4-2.3-.5q-4.65-.9-9.3 0c-2.8.6-5.5 1.7-7.9 3.3-2.3 1.6-4.4 3.6-6 5.8-1.7 2.3-2.9 5-3.7 7.8-.8 3-.9 6.2-.6 9.2q.6 4.5 2.4 8.7c.5 1.2 1.1 2.3 1.7 3.4 2.3 4 5.3 7.6 8.6 10.9 2.3 2.3 4.6 4.5 6.9 6.7s4.7 4.3 7.1 6.5c5 4.4 10.3 8.9 15.3 13.2.8.7 4.9 3.7 6.9 5.4.8.7 1.7 1.5 2.7 1.9.9.4 1.1.1 1.6-.5.7-.8 1.6-1.5 2.4-2.3s1.6-1.6 2.3-2.5c2.9-3.2 6-6.1 9.1-9 2.4-2.2 4.7-4.4 7-6.6 2.2-2.2 4.4-4.5 6.5-6.8 2-2.3 4-4.7 5.7-7.3 1.8-2.5 3.3-5.1 4.7-7.9 1.4-2.7 2.4-5.6 3-8.6.8-3 .8-6.1 0-9.1m-35.2 50.8c-.1 1-.5 2-.9 3-1 2-2.6 3.7-4.4 5-.6.5-1.1 1-1.8.4 0-.2-1.1-.8-1.3-1-.5-.4-1-.7-1.5-1.1-.9-.7-1.8-1.3-2.6-2-1.7-1.3-3.3-2.8-4.9-4.2-1-.8-2-1.6-3-2.5-.9-.8-2-1.4-2.8-2.3h.1c1.6-.7 3.1-1.4 4.8-1.8.6-.1.8-.1.5-.7-.4-.7-.6-1.5-.5-2.3.1-1.3 1.5 0 2 .3.6.4 1.3.8 1.9 1.1.4.2 1.6 1.2 1.4.1 0-.2-.1-.4 0-.6.2-1.3 2.3 1.2 2.5 1.6s.3.3.4 0c.1-.4-.1-1.2-.2-1.6-.1-1-.2-2.1-.3-3.2v-.3c.3-.6 2.6 2.2 2.9 2.6.2.2.3.5.7.5.2 0 .4-.2.5-.3.4-.3.8-.7 1.2-1.1.4-.3.7-.3.7.2.1.8.2 1.6.2 2.3 0 .3-.1 1 .1 1.3.4.4 1.1-.7 1.6-.9.7-.3 1.3-.3 1.8-.9.1-.1.2-.3.3-.3.3-.1.4.2.4.4.2.9 0 1.9.1 2.9.1 1.9.3 3.6.1 5.4" clip-rule="evenodd"></path><path fill="#fff" fill-rule="evenodd" d="M190.3 80.553c-.1 1-.5 2-.9 3-1 2-2.6 3.7-4.4 5-.6.5-1.1 1-1.8.4 0-.2-1.1-.8-1.3-1-.5-.4-1-.7-1.5-1.1-.9-.7-1.8-1.3-2.6-2-1.7-1.3-3.3-2.8-4.9-4.2-1-.8-2-1.6-3-2.5-.9-.8-2-1.4-2.8-2.3h.1c1.6-.7 3.1-1.4 4.8-1.8.6-.1.8-.1.5-.7-.4-.7-.6-1.5-.5-2.3.1-1.3 1.5 0 2 .3.6.4 1.3.8 1.9 1.1.4.2 1.6 1.2 1.4.1 0-.2-.1-.4 0-.6.2-1.3 2.3 1.2 2.5 1.6s.3.3.4 0c.1-.4-.1-1.2-.2-1.6-.1-1-.2-2.1-.3-3.2v-.3c.3-.6 2.6 2.2 2.9 2.6.2.2.3.5.7.5.2 0 .4-.2.5-.3.4-.3.8-.7 1.2-1.1.4-.3.7-.3.7.2.1.8.2 1.6.2 2.3 0 .3-.1 1 .1 1.3.4.4 1.1-.7 1.6-.9.7-.3 1.3-.3 1.8-.9.1-.1.2-.3.3-.3.3-.1.4.2.4.4.2.9 0 1.9.1 2.9.1 1.9.3 3.6.1 5.4" clip-rule="evenodd"></path><path fill="#fff" fill-rule="evenodd" d="M180.6 50.253c-1.7-1.2-3.5-2.2-5.3-3.1-4.4-2-9-3.2-13.7-4.4-2.7-.7-5.5-1.3-7.9-2.8s-4.3-4-4.3-6.8c-.1-2.8 2.3-5.6 5.1-5.4-2.7-.6-5.3 1.8-5.6 4.6-.4 4.2 3.1 7.3 6.5 9 3.6 1.9 7.6 2.8 11.5 3.9 4.1 1.2 8.2 2.6 11.7 5.2 6.6 4.9 10.5 12.9 11.8 20.9.1.6.2 1.2.2 1.8 0 .3.1.5.1.8 0-.2.5-.9.6-1.1.1-.5 0-1 .1-1.5.2-3.9 3.6-6.1 6.3-8.2 3.4-2.6 6.2-6 8.5-9.7 0-.1.1-.1.1-.2 2.4-4 4.1-8.8 3-13.4 3-1.7 6.7-2.2 10.1-1.4-.1-2.9-.5-6.2-2.8-7.9-2.4-1.8-5.9-.9-8.5.6-6.2 3.6-10.5 10.3-17.2 12.8 5.2-.1 9.6-4.3 14.8-4.6-5.2 3.1-10.7 4.9-16.6 6.4-2.2.5-1.8 2.6-2 4.4 0 2-.4 4-.6 5.9-1.6-2.3-3.6-4.2-5.9-5.8m23.5-22.9c0-.1-.1-.1-.2-.1-.9-.4-1.7-.7-2.7-.8-.8-.1-1.8 0-2.6.4-.3.1-.7.3-.9.6-.3.3-.6.6-.8 1s-.4.8-.6 1.1c-.2.4-.5.8-.7 1.2-.3.4-.5.9-.7 1.4 0 .1-.1.3 0 .3.3.4 8.9-5 9-5 0-.1.1-.1.2-.1m-21-6.9c-.4-.3-.7-.1-.7.3s.8 6.3.9 6.3c.4-.5.9-1.2 1.3-2.1.2-.6.8-2 .8-2.5 0-.2-.1-.3-.1-.4-.1-.1-.2-.2-.3-.4zm18.3 8c-.1 0 0 0 0 0-.6-.3-1-.5-1.6-.5-.5 0-1 0-1.4.2-.2.1-.4.2-.5.3-.2.2-.3.4-.4.6s-.2.4-.4.6c-.1.2-.3.4-.4.7-.1.2-.3.5-.4.8 0 0-.1.1 0 .2.2.2 5-2.8 5-2.8z" clip-rule="evenodd"></path><path fill="#151B19" fill-rule="evenodd" d="M183.3 22.2c-.2-.1-.4-.1-.4.2 0 .2.5 3.5.5 3.5.2-.3.5-.7.7-1.2.1-.3.5-1.1.4-1.4 0-.1 0-.2-.1-.2 0-.1-.1-.1-.2-.2zm18.2 6.2q0-.15 0 0c-.6-.3-1-.4-1.5-.5-.5 0-.9 0-1.4.2-.2.1-.4.2-.5.3-.2.2-.3.3-.4.5l-.3.6c-.1.2-.2.4-.4.6-.1.2-.3.5-.4.7 0 0-.1.1 0 .2.2.2 4.7-2.7 4.8-2.7z" clip-rule="evenodd"></path><path fill="#fff" fill-rule="evenodd" d="M182.7 15.753c.1.2.1.4.2.7.2.1.4.2.7.3 0 0 .1-.1.2-.1.2-.3.4-.5.6-.8.3-.5.7-1.2.5-1.8-.1-.5 1.2-2.2 1.1-2.8-.2-.7-.6-.9-.4-1.2.1-.3.5-.1 1-.5.1-.1.4-.3.5-.6s0-.5-.1-.8c-.1-.2-.3-.4-.5-.6s-.5-.4-.8-.7c-.5-.4-1.1-.8-1.6-1.2-.5-.3-1-.6-1.6-.7-.2 0-.5 0-.7.1s-.4.4-.4.6c-.2.6-.1 1.3 0 1.9l.3 2.1c.2 1.4.4 2.8.7 4.1-.1.6.1 1.3.3 2" clip-rule="evenodd"></path><path fill="#1B201C" fill-rule="evenodd" d="M187.1 41.853c-.3-.3-5.2-4.2-5.5-4.5-.2-.1-.3-.2-.5-.3-.1 0-.2-.1-.2-.1h-.3s0 .1-.1.1c0 0 0 .1-.1.1 0 .1-.1.2-.1.3-.1.2-.2.4-.3.5-.2.3-.3.7-.3 1.1-.1.7 0 1.5.3 2.1.4.8 1.1 1.4 1.8 1.8.3.2.7.3 1.1.4s2.7.3 2.9.3.4 0 .6-.1c.2 0 .4 0 .6-.1.2 0 .4 0 .5-.1s.3-.2.3-.3c0-.2 0-.4-.1-.5 0-.2-.3-.4-.6-.7" clip-rule="evenodd"></path><path stroke="#000" stroke-linecap="round" stroke-linejoin="round" stroke-miterlimit="10" stroke-width="4" d="M229.9 10.753h11.6c2.8 0 5 2.3 5 5v62.6c0 2.8-2.3 5-5 5h-43.8"></path><path fill="#000" d="M165.6 85.353H117c-3.9 0-7-3.1-7-7v-62.6c0-3.9 3.1-7 7-7h17.7c1.1 0 2 .9 2 2s-.9 2-2 2H117c-1.7 0-3 1.3-3 3v62.6c0 1.7 1.3 3 3 3h48.7c1.1 0 2 .9 2 2s-1 2-2.1 2"></path><path fill="#000" d="M132.9 10.753h-15.4l1.4-4.6c.4-1.3 1.6-2.3 3-2.3h6.5c1.4 0 2.6.9 3 2.3z"></path><path fill="#000" fill-rule="evenodd" d="M237.2 23.253c0 1.1-.9 2-2 2h-5c-1.1 0-2-.9-2-2v-2.3c0-1.1.9-2 2-2h5c1.1 0 2 .9 2 2z" clip-rule="evenodd"></path></symbol><symbol id="vk" viewBox="0 0 48 48"><path d="M31.395 0h-14.66C3.373 0 0 3.243 0 16.605v14.66C0 44.757 3.243 48 16.605 48h14.66C44.627 48 48 44.757 48 31.395v-14.66C48 3.373 44.757 0 31.395 0m7.394 34.249h-3.503c-1.297 0-1.686-1.038-4.15-3.373-2.076-1.946-2.985-2.206-3.504-2.206-.648 0-.908.26-.908 1.168v3.113c0 .908-.26 1.298-2.465 1.298-3.762 0-7.783-2.206-10.637-6.357-4.281-6.097-5.579-10.638-5.579-11.546 0-.519.26-1.038 1.168-1.038h3.502c.909 0 1.168.39 1.557 1.297 1.687 4.93 4.54 9.34 5.838 9.34.39 0 .649-.259.649-1.296v-5.19c-.13-2.335-1.427-2.594-1.427-3.372 0-.39.389-.779.908-.779h5.448c.779 0 1.038.39 1.038 1.297v6.876c0 .778.26 1.038.52 1.038.388 0 .778-.26 1.686-1.038 2.465-2.854 4.28-7.135 4.28-7.135.26-.519.65-1.038 1.558-1.038h3.502c1.038 0 1.298.519 1.038 1.297-.39 2.076-4.67 8.044-4.67 8.044-.39.648-.52.908 0 1.556.389.52 1.557 1.557 2.465 2.465 1.556 1.687 2.594 3.114 2.983 4.152.13.908-.389 1.427-1.297 1.427"></path></symbol></svg>