<svg viewBox="0 0 277 47" fill="none" xmlns="http://www.w3.org/2000/svg">
<path d="M108.421 15.5415H93.5208V20.4415H106.321V27.9415H93.5208V39.3415H83.8208V7.5415H108.321L108.421 15.5415Z" fill="#E37C1D"/>
<path d="M143.921 23.4414C143.921 33.3414 137.521 40.0414 128.021 40.0414C118.321 40.0414 111.821 33.4414 111.821 23.4414C111.821 13.3414 118.321 6.84144 128.121 6.84144C137.621 6.74144 143.921 13.4414 143.921 23.4414ZM121.721 23.2414C121.721 28.9414 124.021 32.1414 128.021 32.1414C132.021 32.1414 134.121 28.9414 134.121 22.9414C134.121 17.6414 131.821 14.4414 128.021 14.4414C124.021 14.5414 121.721 17.8414 121.721 23.2414Z" fill="#E37C1D"/>
<path d="M165.721 22.4415L177.021 39.2415H165.321L162.221 34.0415C161.321 32.5415 160.621 31.0415 159.921 29.5415C159.121 31.1415 158.321 32.7415 157.421 34.2415L154.421 39.2415H143.121L154.621 22.4415L144.121 7.5415H155.521L157.921 11.7415C158.821 13.2415 159.521 14.8415 160.321 16.4415C161.021 15.0415 161.621 13.6415 162.421 12.2415L165.021 7.5415H175.821L165.721 22.4415Z" fill="#E37C1D"/>
<path d="M189.621 19.3416C193.721 19.3416 196.621 21.2416 196.621 25.5416C196.621 29.7416 193.621 31.6416 189.821 31.6416H185.521V38.5416H181.321V19.3416H189.621ZM185.621 28.2416H189.321C191.221 28.2416 192.621 27.6416 192.621 25.5416C192.621 23.5416 191.221 22.7416 189.321 22.7416H185.521V28.2416H185.621Z" fill="black"/>
<path d="M216.421 38.4416H212.221V30.2416H204.421V38.4416H200.221V19.3416H204.421V26.5416H212.221V19.3416H216.421V38.4416Z" fill="black"/>
<path d="M239.121 28.9415C239.121 34.9415 235.321 38.9415 229.721 38.9415C224.021 38.9415 220.221 34.9415 220.221 28.9415C220.221 22.8415 224.021 18.9415 229.721 18.9415C235.321 18.8415 239.121 22.9415 239.121 28.9415ZM224.521 28.8415C224.521 32.9415 226.521 35.4415 229.721 35.4415C232.921 35.4415 234.821 32.9415 234.821 28.8415C234.821 24.8415 232.821 22.3415 229.621 22.3415C226.521 22.3415 224.521 24.8415 224.521 28.8415Z" fill="black"/>
<path d="M256.321 22.8415H250.521V38.4415H246.321V22.8415H240.521V19.2415H256.221V22.8415H256.321Z" fill="black"/>
<path d="M276.621 28.9415C276.621 34.9415 272.821 38.9415 267.221 38.9415C261.521 38.9415 257.721 34.9415 257.721 28.9415C257.721 22.8415 261.521 18.9415 267.221 18.9415C272.821 18.8415 276.621 22.9415 276.621 28.9415ZM262.021 28.8415C262.021 32.9415 264.021 35.4415 267.221 35.4415C270.421 35.4415 272.321 32.9415 272.321 28.8415C272.321 24.8415 270.321 22.3415 267.121 22.3415C264.021 22.3415 262.021 24.8415 262.021 28.8415Z" fill="black"/>
<path d="M61.2208 5.44141H67.1208C68.5208 5.44141 69.7208 6.54141 69.7208 8.04141V39.9414C69.7208 41.3414 68.6208 42.5414 67.1208 42.5414H44.8208" stroke="black" stroke-width="2.0417" stroke-miterlimit="10" stroke-linecap="round" stroke-linejoin="round"/>
<path d="M28.4208 42.5414H3.62084C2.22084 42.5414 1.02084 41.3414 1.02084 39.9414V8.04141C1.02084 6.64141 2.12084 5.44141 3.62084 5.44141H12.6208" stroke="black" stroke-width="2.0417" stroke-miterlimit="10" stroke-linecap="round" stroke-linejoin="round"/>
<path d="M11.7208 5.44141H3.82083L4.52083 3.04141C4.82083 2.44141 5.42083 1.94141 6.12083 1.94141H9.42083C10.1208 1.94141 10.7208 2.44141 11.0208 3.14141L11.7208 5.44141Z" fill="black"/>
<path d="M64.9208 11.8415C64.9208 12.4415 64.4208 12.8415 63.9208 12.8415H61.4208C60.8208 12.8415 60.4208 12.3415 60.4208 11.8415V10.7415C60.4208 10.1415 60.9208 9.74146 61.4208 9.74146H63.9208C64.5208 9.74146 64.9208 10.2415 64.9208 10.7415V11.8415Z" fill="black"/>
<path d="M36.6208 13.1413C36.6208 13.9413 36.6208 14.7413 36.5208 15.6413C36.4208 16.4413 36.2208 17.2413 36.0208 18.0413C35.9208 18.4413 35.8208 18.8413 35.8208 19.2413C35.9208 19.5413 35.4208 20.8413 35.5208 20.1413C35.6208 19.3413 35.8208 18.5413 35.9208 17.7413C36.0208 16.9413 35.9208 16.1413 35.7208 15.3413C35.5208 14.6413 35.1208 14.0413 34.7208 13.4413C33.9208 12.3413 32.8208 11.4413 31.5208 10.7413C30.2208 9.94133 28.7208 9.44133 27.2208 9.14133C25.7208 8.84133 24.1208 8.74133 22.5208 9.04133C21.1208 9.34133 19.7208 9.94133 18.6208 10.8413C18.3208 11.0413 18.0208 11.3413 17.8208 11.6413C17.7208 11.8413 17.5208 11.9413 17.4208 12.0413C17.3208 12.1413 17.3208 12.2413 17.2208 12.3413C17.1208 12.4413 17.1208 12.5413 17.0208 12.5413C16.9208 12.4413 17.2208 12.1413 17.2208 12.1413C17.3208 11.9413 17.4208 11.8413 17.6208 11.6413C17.8208 11.3413 18.1208 11.0413 18.3208 10.8413C19.3208 9.84133 20.6208 9.24133 21.9208 8.84133C23.4208 8.44133 25.0208 8.44133 26.6208 8.64133C27.4208 8.84133 28.2208 9.04133 29.0208 9.24133C29.7208 9.44133 30.4208 9.74133 31.2208 10.0413C31.3208 10.1413 31.4208 10.1413 31.5208 10.1413C31.6208 10.1413 31.6208 10.1413 31.6208 10.1413C31.6208 10.0413 31.5208 10.0413 31.5208 10.0413C31.2208 9.84133 30.9208 9.74133 30.6208 9.54133C30.2208 9.34133 29.9208 9.14133 29.5208 9.04133C29.1208 8.84133 28.7208 8.74133 28.4208 8.64133C27.6208 8.34133 26.9208 8.24133 26.1208 8.14133C25.6208 7.94133 25.2208 7.94133 24.8208 7.84133C24.4208 7.74133 24.0208 7.74133 23.6208 7.74133C23.4208 7.74133 23.2208 7.84133 23.0208 7.84133H22.7208C22.6208 7.84133 22.5208 7.84133 22.5208 7.74133C22.5208 7.64133 22.8208 7.54133 22.8208 7.54133C23.0208 7.44133 23.2208 7.44133 23.4208 7.44133C23.8208 7.44133 24.2208 7.34133 24.6208 7.34133C25.0208 7.24133 25.4208 7.24133 25.8208 7.24133C27.4208 7.24133 29.0208 7.54133 30.5208 8.14133C30.9208 8.34133 31.2208 8.44133 31.5208 8.64133C31.7208 8.84133 31.8208 8.94133 31.8208 8.94133C31.8208 8.94133 31.9208 9.04133 32.0208 9.04133C32.1208 9.04133 32.1208 9.14133 32.1208 8.94133H32.0208C31.9208 8.84133 31.8208 8.84133 31.8208 8.74133C31.6208 8.64133 31.5208 8.54133 31.3208 8.44133C30.9208 8.24133 30.6208 7.94133 30.3208 7.74133C30.0208 7.44133 29.6208 7.24133 29.3208 7.04133C29.2208 6.94133 29.0208 6.84133 28.8208 6.74133C28.7208 6.64133 28.6208 6.64133 28.5208 6.54133C28.4208 6.54133 28.4208 6.44133 28.3208 6.44133C28.2208 6.34133 28.2208 6.34133 28.3208 6.34133H28.5208C28.7208 6.44133 28.9208 6.44133 29.1208 6.54133C29.5208 6.64133 29.9208 6.84133 30.2208 6.94133C31.6208 7.54133 32.9208 8.24133 34.0208 9.24133C34.6208 9.74133 35.1208 10.2413 35.6208 10.8413C35.7208 11.0413 35.9208 11.1413 36.0208 11.2413C36.0208 11.2413 36.1208 11.4413 36.2208 11.3413C36.3208 11.2413 36.1208 11.1413 36.1208 11.1413C35.9208 10.8413 35.6208 10.5413 35.4208 10.2413C34.9208 9.64133 34.4208 9.04133 33.8208 8.54133C33.2208 8.04133 32.6208 7.54133 32.0208 7.14133C30.7208 6.34133 29.3208 5.74133 27.8208 5.34133C27.0208 5.14133 26.3208 5.04133 25.4208 4.94133C24.7208 4.84133 23.8208 4.84133 23.0208 4.94133C22.6208 5.04133 22.3208 5.14133 21.9208 5.14133C21.8208 5.14133 21.7208 5.24133 21.6208 5.14133C21.5208 5.04133 21.8208 4.94133 21.8208 4.94133C22.2208 4.84133 22.6208 4.74133 23.0208 4.64133C23.4208 4.54133 23.8208 4.44133 24.2208 4.44133C24.6208 4.34133 25.0208 4.44133 25.4208 4.44133H25.7208C25.8208 4.44133 25.9208 4.44133 25.9208 4.34133C25.9208 4.24133 25.7208 4.24133 25.7208 4.24133H25.4208C24.6208 4.14133 23.8208 4.14133 23.0208 4.14133C21.5208 4.24133 19.9208 4.64133 18.5208 5.34133C17.2208 6.14133 16.1208 6.94133 15.0208 8.04133C14.5208 8.64133 14.0208 9.14133 13.6208 9.84133C13.4208 10.1413 13.2208 10.5413 13.0208 10.8413C12.8208 11.2413 12.7208 11.5413 12.6208 11.9413C12.6208 12.0413 12.5208 12.1413 12.5208 12.1413C12.4208 12.2413 12.4208 12.2413 12.4208 12.1413C12.4208 12.0413 12.4208 11.9413 12.5208 11.8413C12.6208 11.4413 12.7208 11.1413 12.9208 10.7413C13.2208 10.0413 13.5208 9.34133 13.9208 8.74133C14.7208 7.54133 15.7208 6.54133 16.9208 5.74133C18.1208 4.94133 19.5208 4.34133 20.9208 4.14133C21.8208 3.94133 22.8208 3.84133 23.8208 3.94133C24.8208 4.04133 25.7208 4.24133 26.3208 4.44133C26.4208 4.44133 26.6208 4.54133 26.7208 4.54133C26.8208 4.54133 26.8208 4.54133 26.9208 4.64133C27.0208 4.64133 27.0208 4.74133 27.1208 4.64133C29.3208 5.24133 34.3208 8.14133 36.5208 11.6413C36.5208 12.0413 36.6208 12.5413 36.6208 13.1413Z" fill="white"/>
<path d="M59.0208 15.2414C58.8208 14.5414 58.5208 13.8414 58.1208 13.2414C57.9208 12.9414 57.7208 12.6414 57.4208 12.3414C57.2208 12.0414 56.9208 11.8414 56.7208 11.6414L56.6208 11.5414C56.3208 11.2414 56.1208 10.9414 55.9208 10.6414C55.7208 10.3414 55.5208 9.94142 55.6208 9.54142C55.6208 9.34142 55.7208 9.24142 55.6208 9.04142C55.5208 8.94142 55.5208 8.94142 55.4208 8.94142C55.3208 8.94142 55.2208 8.84142 55.2208 8.84142C55.0208 8.64142 55.0208 8.24142 55.0208 7.94142C55.0208 7.74142 55.0208 7.54142 54.9208 7.34142C54.8208 7.14142 54.7208 7.04142 54.6208 6.94142C54.5208 6.84142 54.3208 6.74142 54.3208 6.54142C54.2208 6.34142 54.3208 6.24142 54.4208 6.04142C54.5208 5.84142 54.6208 5.74142 54.7208 5.64142C54.9208 5.44142 55.0208 5.34142 55.2208 5.24142C55.5208 4.94142 55.8208 4.74142 56.2208 4.54142C56.5208 4.34142 56.8208 4.14142 57.1208 4.14142C57.3208 4.14142 57.4208 4.14142 57.5208 4.24142C57.7208 4.34142 57.7208 4.44142 57.8208 4.64142C57.9208 5.04142 57.9208 5.34142 57.8208 5.74142C57.7208 6.14142 57.7208 6.54142 57.6208 6.94142C57.5208 7.74142 57.3208 8.54142 57.2208 9.34142C57.1208 9.74142 57.0208 10.1414 56.9208 10.5414C56.8208 10.7414 56.8208 10.9414 56.7208 11.1414C56.6208 11.2414 56.6208 11.4414 56.7208 11.5414C56.8208 11.6414 57.0208 11.5414 57.1208 11.4414C57.3208 11.3414 57.4208 11.2414 57.5208 11.1414C57.7208 10.8414 57.8208 10.5414 57.9208 10.1414C58.1208 9.34142 58.3208 8.64142 58.5208 7.74142C58.8208 6.14142 58.9208 4.44142 58.8208 2.84142C58.7208 2.44142 58.7208 2.04142 58.7208 1.64142C58.6208 1.24142 58.6208 0.941421 58.4208 0.641421C58.2208 0.341421 58.0208 0.241421 57.7208 0.241421C57.3208 0.341421 57.1208 0.641421 56.8208 0.841421C56.5208 1.14142 56.3208 1.44142 56.0208 1.64142C55.7208 1.84142 55.4208 2.14142 55.1208 2.34142C54.5208 2.74142 53.8208 3.14142 53.1208 3.34142C52.3208 3.64142 51.6208 3.74142 50.8208 3.84142C50.0208 3.94142 49.2208 3.94142 48.4208 3.94142C47.6208 3.84142 46.8208 3.74142 45.9208 3.64142C45.1208 3.54142 44.3208 3.44142 43.4208 3.24142C41.9208 3.04142 40.4208 2.64142 39.0208 1.94142C38.3208 1.64142 37.6208 1.24142 37.0208 0.841421C36.8208 0.741421 36.7208 0.641421 36.5208 0.541421C36.3208 0.441421 36.1208 0.241421 36.0208 0.141421C35.8208 0.0414214 35.5208 -0.0585786 35.3208 0.0414214C35.1208 0.141421 35.0208 0.441421 35.0208 0.541421C34.9208 0.741421 34.9208 0.941421 34.8208 1.14142C34.6208 1.94142 34.6208 2.74142 34.7208 3.54142C34.9208 5.14142 35.4208 6.64142 35.8208 8.24142C36.1208 9.34142 36.3208 10.3414 36.4208 11.4414C36.5208 11.9414 36.5208 12.4414 36.5208 13.0414C36.5208 13.8414 36.5208 14.6414 36.4208 15.5414C36.3208 16.3414 36.1208 17.1414 35.9208 17.9414C35.8208 18.3414 35.7208 18.7414 35.7208 19.1414C35.8208 19.4414 35.3208 20.7414 35.4208 20.0414C35.5208 19.2414 35.7208 18.4414 35.8208 17.6414C35.9208 16.8414 35.8208 16.0414 35.6208 15.2414C35.4208 14.5414 35.0208 13.9414 34.6208 13.3414C33.8208 12.2414 32.7208 11.3414 31.4208 10.6414C30.1208 9.84142 28.6208 9.34142 27.1208 9.04142C25.6208 8.74142 24.0208 8.64142 22.4208 8.94142C21.0208 9.24142 19.6208 9.84142 18.5208 10.7414C18.2208 10.9414 17.9208 11.2414 17.7208 11.5414C17.6208 11.7414 17.4208 11.8414 17.3208 11.9414C17.2208 12.0414 17.2208 12.1414 17.1208 12.2414C17.0208 12.3414 17.0208 12.4414 16.9208 12.4414C16.8208 12.3414 17.1208 12.0414 17.1208 12.0414C17.2208 11.8414 17.3208 11.7414 17.5208 11.5414C17.7208 11.2414 18.0208 10.9414 18.2208 10.7414C19.2208 9.74142 20.5208 9.14142 21.8208 8.74142C23.3208 8.34142 24.9208 8.34142 26.5208 8.54142C27.3208 8.74142 28.1208 8.94142 28.9208 9.14142C29.6208 9.34142 30.3208 9.64142 31.1208 9.94142C31.2208 10.0414 31.3208 10.0414 31.4208 10.0414C31.5208 10.0414 31.5208 10.0414 31.5208 10.0414C31.5208 9.94142 31.4208 9.94142 31.4208 9.94142C31.1208 9.74142 30.8208 9.64142 30.5208 9.44142C30.1208 9.24142 29.8208 9.04142 29.4208 8.94142C29.0208 8.74142 28.6208 8.64142 28.3208 8.54142C27.5208 8.24142 26.8208 8.14142 26.0208 8.04142C25.6208 7.94142 25.2208 7.94142 24.8208 7.84142C24.4208 7.74142 24.0208 7.74142 23.6208 7.74142C23.4208 7.74142 23.2208 7.84142 23.0208 7.84142H22.7208C22.6208 7.84142 22.5208 7.84142 22.5208 7.74142C22.5208 7.64142 22.8208 7.54142 22.8208 7.54142C23.0208 7.44142 23.2208 7.44142 23.4208 7.44142C23.8208 7.44142 24.2208 7.34142 24.6208 7.34142C25.0208 7.24142 25.4208 7.24142 25.8208 7.24142C27.4208 7.24142 29.0208 7.54142 30.5208 8.14142C30.9208 8.34142 31.2208 8.44142 31.5208 8.64142C31.7208 8.84142 31.8208 8.94142 31.8208 8.94142C31.8208 8.94142 31.9208 9.04142 32.0208 9.04142C32.1208 9.04142 32.1208 9.14142 32.1208 8.94142H32.0208C31.9208 8.84142 31.8208 8.84142 31.8208 8.74142C31.6208 8.64142 31.5208 8.54142 31.3208 8.44142C30.9208 8.24142 30.6208 7.94142 30.3208 7.74142C30.0208 7.44142 29.6208 7.24142 29.3208 7.04142C29.2208 6.94142 29.0208 6.84142 28.8208 6.74142C28.7208 6.64142 28.6208 6.64142 28.5208 6.54142C28.4208 6.54142 28.4208 6.44142 28.3208 6.44142C28.2208 6.34142 28.2208 6.34142 28.3208 6.34142H28.5208C28.7208 6.44142 28.9208 6.44142 29.1208 6.54142C29.5208 6.64142 29.9208 6.84142 30.2208 6.94142C31.6208 7.54142 32.9208 8.24142 34.0208 9.24142C34.6208 9.74142 35.1208 10.2414 35.6208 10.8414C35.7208 11.0414 35.9208 11.1414 36.0208 11.2414C36.0208 11.2414 36.1208 11.4414 36.2208 11.3414C36.3208 11.2414 36.1208 11.1414 36.1208 11.1414C35.9208 10.8414 35.6208 10.5414 35.4208 10.2414C34.9208 9.64142 34.4208 9.04142 33.8208 8.54142C33.2208 8.04142 32.6208 7.54142 32.0208 7.14142C30.7208 6.34142 29.3208 5.74142 27.8208 5.34142C27.0208 5.14142 26.3208 5.04142 25.4208 4.94142C24.7208 4.84142 23.8208 4.84142 23.0208 4.94142C22.6208 5.04142 22.3208 5.14142 21.9208 5.14142C21.8208 5.14142 21.7208 5.24142 21.6208 5.14142C21.5208 5.04142 21.8208 4.94142 21.8208 4.94142C22.2208 4.84142 22.6208 4.74142 23.0208 4.64142C23.4208 4.54142 23.8208 4.44142 24.2208 4.44142C24.6208 4.34142 25.0208 4.44142 25.4208 4.44142H25.7208C25.8208 4.44142 25.9208 4.44142 25.9208 4.34142C25.9208 4.24142 25.7208 4.24142 25.7208 4.24142H25.4208C24.6208 4.14142 23.8208 4.14142 23.0208 4.14142C21.5208 4.24142 19.9208 4.64142 18.5208 5.34142C17.2208 6.14142 16.1208 6.94142 15.0208 8.04142C14.5208 8.64142 14.0208 9.14142 13.6208 9.84142C13.4208 10.1414 13.2208 10.5414 13.0208 10.8414C12.8208 11.2414 12.7208 11.5414 12.6208 11.9414C12.6208 12.0414 12.5208 12.1414 12.5208 12.1414C12.4208 12.2414 12.4208 12.2414 12.4208 12.1414C12.4208 12.0414 12.4208 11.9414 12.5208 11.8414C12.6208 11.4414 12.7208 11.1414 12.9208 10.7414C13.2208 10.0414 13.5208 9.34142 13.9208 8.74142C14.7208 7.54142 15.7208 6.54142 16.9208 5.74142C18.1208 4.94142 19.5208 4.34142 20.9208 4.14142C21.8208 3.94142 22.8208 3.84142 23.8208 3.94142C24.4208 3.94142 25.0208 4.04142 25.6208 4.24142C25.9208 4.34142 26.1208 4.34142 26.3208 4.44142C26.4208 4.44142 26.6208 4.54142 26.7208 4.54142C26.8208 4.54142 26.8208 4.54142 26.9208 4.64142C27.0208 4.64142 27.0208 4.74142 27.1208 4.64142C27.2208 4.44142 27.0208 4.44142 27.0208 4.44142C26.7208 4.34142 26.4208 4.24142 26.2208 4.14142C25.7208 4.04142 25.3208 3.94142 25.0208 3.94142C23.7208 3.64142 22.4208 3.64142 21.1208 3.84142C21.0208 3.84142 20.9208 3.84142 20.8208 3.84142C20.6208 3.84142 20.5208 3.94142 20.3208 3.94142C18.9208 4.24142 17.5208 4.84142 16.3208 5.64142C15.5208 6.24142 14.7208 6.84142 14.1208 7.54142C14.0208 7.64142 14.0208 7.64142 13.9208 7.74142C13.6208 8.04142 13.4208 8.34142 13.2208 8.64142C12.3208 9.84142 11.7208 11.2414 11.3208 12.6414C10.9208 14.1414 10.8208 15.8414 11.0208 17.3414C11.2208 18.8414 11.6208 20.3414 12.2208 21.8414C12.5208 22.4414 12.8208 23.0414 13.1208 23.5414C14.3208 25.5414 15.8208 27.4414 17.5208 29.1414C18.7208 30.3414 19.9208 31.4414 21.0208 32.5414C22.2208 33.6414 23.4208 34.7414 24.6208 35.8414C27.2208 38.1414 29.9208 40.4414 32.4208 42.6414C32.8208 43.0414 34.9208 44.5414 35.9208 45.4414C36.3208 45.8414 36.8208 46.2414 37.3208 46.4414C37.8208 46.6414 37.9208 46.5414 38.1208 46.1414C38.5208 45.7414 38.9208 45.3414 39.3208 44.9414C39.7208 44.5414 40.1208 44.1414 40.5208 43.6414C42.0208 42.0414 43.6208 40.5414 45.2208 39.0414C46.4208 37.9414 47.6208 36.7414 48.8208 35.6414C49.9208 34.5414 51.1208 33.3414 52.1208 32.1414C53.1208 30.9414 54.1208 29.7414 55.0208 28.4414C55.9208 27.1414 56.7208 25.8414 57.4208 24.4414C58.1208 23.0414 58.6208 21.5414 58.9208 20.0414C59.4208 18.4414 59.4208 16.8414 59.0208 15.2414ZM41.0208 41.3414C40.9208 41.8414 40.7208 42.3414 40.5208 42.8414C40.0208 43.8414 39.2208 44.7414 38.2208 45.4414C37.9208 45.7414 37.6208 45.9414 37.3208 45.6414C37.3208 45.5414 36.7208 45.2414 36.6208 45.1414C36.3208 44.9414 36.1208 44.7414 35.8208 44.5414C35.3208 44.1414 34.9208 43.8414 34.5208 43.5414C33.6208 42.8414 32.8208 42.1414 32.0208 41.3414C31.5208 40.9414 31.0208 40.5414 30.5208 40.0414C30.0208 39.6414 29.5208 39.3414 29.1208 38.8414H29.2208C30.0208 38.4414 30.8208 38.1414 31.7208 37.9414C32.0208 37.8414 32.1208 37.8414 32.0208 37.5414C31.8208 37.1414 31.7208 36.7414 31.7208 36.3414C31.8208 35.6414 32.5208 36.3414 32.7208 36.5414C33.0208 36.7414 33.4208 36.9414 33.7208 37.1414C33.9208 37.2414 34.5208 37.7414 34.4208 37.2414C34.4208 37.1414 34.3208 37.0414 34.4208 36.9414C34.5208 36.2414 35.6208 37.5414 35.7208 37.7414C35.8208 37.9414 35.9208 37.9414 35.9208 37.7414C36.0208 37.5414 35.8208 37.1414 35.8208 36.9414C35.7208 36.4414 35.7208 35.8414 35.6208 35.3414V35.1414C35.8208 34.8414 36.9208 36.2414 37.1208 36.4414C37.2208 36.5414 37.3208 36.7414 37.5208 36.7414C37.6208 36.7414 37.7208 36.6414 37.8208 36.5414C38.0208 36.3414 38.2208 36.1414 38.4208 35.9414C38.6208 35.7414 38.8208 35.7414 38.8208 36.0414C38.9208 36.4414 38.9208 36.8414 38.9208 37.2414C38.9208 37.4414 38.8208 37.7414 39.0208 37.9414C39.2208 38.1414 39.6208 37.5414 39.8208 37.4414C40.2208 37.2414 40.5208 37.2414 40.7208 36.9414C40.8208 36.8414 40.8208 36.7414 40.9208 36.7414C41.1208 36.6414 41.1208 36.8414 41.1208 36.9414C41.2208 37.4414 41.1208 37.9414 41.2208 38.4414C41.0208 39.5414 41.1208 40.3414 41.0208 41.3414Z" fill="#E27C1D"/>
<path d="M57.8208 5.84136C57.7208 6.24136 57.7208 6.64136 57.6208 7.04136C57.5208 7.84136 57.3208 8.64136 57.2208 9.44136C57.1208 9.84136 57.0208 10.2414 56.9208 10.6414C56.8208 10.8414 56.8208 11.0414 56.7208 11.2414C56.6208 11.3414 56.6208 11.5414 56.7208 11.6414L56.6208 11.5414C56.3208 11.2414 56.1208 10.9414 55.9208 10.6414C55.7208 10.3414 55.5208 9.94136 55.6208 9.54136C55.6208 9.34136 55.7208 9.24136 55.6208 9.04136C55.5208 8.94136 55.5208 8.94136 55.4208 8.94136C55.3208 8.94136 55.2208 8.84136 55.2208 8.84136C55.0208 8.64136 55.0208 8.24136 55.0208 7.94136C55.0208 7.74136 55.0208 7.54136 54.9208 7.34136C54.8208 7.14136 54.7208 7.04136 54.6208 6.94136C54.5208 6.84136 54.3208 6.74136 54.3208 6.54136C54.2208 6.34136 54.3208 6.24136 54.4208 6.04136C54.5208 5.84136 54.6208 5.74136 54.7208 5.64136C54.9208 5.44136 55.0208 5.34136 55.2208 5.24136C55.5208 4.94136 55.8208 4.74136 56.2208 4.54136C56.5208 4.34136 56.8208 4.14136 57.1208 4.14136C57.3208 4.14136 57.4208 4.14136 57.5208 4.24136C57.7208 4.34136 57.7208 4.44136 57.8208 4.64136C57.9208 5.14136 57.8208 5.44136 57.8208 5.84136Z" fill="white"/>
<path d="M41.0208 41.3413C40.9208 41.8413 40.7208 42.3413 40.5208 42.8413C40.0208 43.8413 39.2208 44.7413 38.2208 45.4413C37.9208 45.7413 37.6208 45.9413 37.3208 45.6413C37.3208 45.5413 36.7208 45.2413 36.6208 45.1413C36.3208 44.9413 36.1208 44.7413 35.8208 44.5413C35.3208 44.1413 34.9208 43.8413 34.5208 43.5413C33.6208 42.8413 32.8208 42.1413 32.0208 41.3413C31.5208 40.9413 31.0208 40.5413 30.5208 40.0413C30.0208 39.6413 29.5208 39.3413 29.1208 38.8413H29.2208C30.0209 38.4413 30.8209 38.1413 31.7208 37.9413C32.0208 37.8413 32.1208 37.8413 32.0208 37.5413C31.8208 37.1413 31.7208 36.7413 31.7208 36.3413C31.8208 35.6413 32.5208 36.3413 32.7208 36.5413C33.0208 36.7413 33.4208 36.9413 33.7208 37.1413C33.9208 37.2413 34.5209 37.7413 34.4209 37.2413C34.4209 37.1413 34.3209 37.0413 34.4209 36.9413C34.5209 36.2413 35.6209 37.5413 35.7208 37.7413C35.8208 37.9413 35.9209 37.9413 35.9209 37.7413C36.0209 37.5413 35.8208 37.1413 35.8208 36.9413C35.7208 36.4413 35.7208 35.8413 35.6208 35.3413C35.6208 35.2413 35.6208 35.2413 35.6208 35.1413C35.8208 34.8413 36.9208 36.2413 37.1208 36.4413C37.2208 36.5413 37.3208 36.7413 37.5208 36.7413C37.6208 36.7413 37.7208 36.6413 37.8208 36.5413C38.0208 36.3413 38.2209 36.1413 38.4209 35.9413C38.6209 35.7413 38.8208 35.7413 38.8208 36.0413C38.9208 36.4413 38.9209 36.8413 38.9209 37.2413C38.9209 37.4413 38.8208 37.7413 39.0208 37.9413C39.2208 38.1413 39.6208 37.5413 39.8208 37.4413C40.2208 37.2413 40.5209 37.2413 40.7208 36.9413C40.8209 36.8413 40.8209 36.7413 40.9209 36.7413C41.1209 36.6413 41.1208 36.8413 41.1208 36.9413C41.2208 37.4413 41.1208 37.9413 41.2208 38.4413C41.0209 39.5413 41.1208 40.3413 41.0208 41.3413Z" fill="white"/>
<path d="M36.0208 25.7413C35.1208 25.1413 34.2208 24.6413 33.3208 24.1413C31.0208 23.1413 28.7208 22.5413 26.3208 21.8413C24.9208 21.4413 23.5208 21.1413 22.3208 20.4413C21.1208 19.6413 20.1208 18.4413 20.1208 16.9413C20.0208 15.5413 21.3208 14.0413 22.7208 14.1413C21.3208 13.8413 20.0208 15.0413 19.8208 16.5413C19.6208 18.7413 21.4208 20.2413 23.1208 21.1413C24.9208 22.1413 27.0208 22.5413 29.0208 23.1413C31.1208 23.7413 33.2208 24.4413 35.0208 25.8413C38.4208 28.3413 40.4208 32.4413 41.0208 36.5413C41.1208 36.8413 41.1208 37.1413 41.1208 37.4413C41.1208 37.6413 41.2208 37.7413 41.2208 37.8413C41.2208 37.7413 41.5208 37.3413 41.5208 37.2413C41.6208 36.9413 41.5208 36.7413 41.6208 36.4413C41.7208 34.4413 43.4208 33.3413 44.8208 32.2413C46.5208 30.9413 48.0208 29.1413 49.2208 27.2413C49.2208 27.1413 49.3208 27.1413 49.3208 27.1413C50.5208 25.1413 51.4208 22.6413 50.8208 20.2413C52.3208 19.3413 54.2208 19.1413 56.0208 19.5413C55.9208 18.0413 55.7208 16.3413 54.6208 15.5413C53.4208 14.6413 51.6208 15.0413 50.2208 15.8413C47.0208 17.6413 44.8208 21.1413 41.4208 22.4413C44.1208 22.3413 46.3208 20.2413 49.0208 20.0413C46.3208 21.6413 43.5208 22.5413 40.5208 23.3413C39.4208 23.6413 39.6208 24.6413 39.5208 25.6413C39.5208 26.6413 39.3208 27.6413 39.2208 28.6413C38.2208 27.5413 37.2208 26.6413 36.0208 25.7413ZM48.0208 14.0413C48.0208 13.9413 48.0208 13.9413 47.9208 13.9413C47.8208 13.9413 47.7208 13.8413 47.6208 13.8413C47.5208 13.7413 47.4208 13.7413 47.3208 13.7413C47.1208 13.6413 46.9208 13.6413 46.8208 13.5413C46.4208 13.4413 46.0208 13.4413 45.7208 13.5413C45.3208 13.6413 45.0208 13.7413 44.7208 14.0413C44.2208 14.5413 43.9208 15.2413 43.6208 15.7413C43.5208 15.8413 43.4208 15.9413 43.4208 16.0413C43.3208 16.1413 43.2208 16.3413 43.2208 16.4413C43.2208 16.5413 43.1208 16.6413 43.2208 16.6413C43.5208 16.8413 47.9208 14.1413 48.0208 14.0413C48.0208 14.0413 47.9208 14.0413 48.0208 14.0413ZM37.3208 10.5413C37.1208 10.3413 36.9208 10.4413 36.9208 10.7413C36.9208 10.9413 37.3208 13.9413 37.4208 13.9413C37.5208 13.9413 37.7208 13.5413 37.7208 13.4413C37.8208 13.2413 37.9208 13.0413 38.0208 12.9413C38.2208 12.6413 38.3208 12.3413 38.4208 12.0413C38.5208 11.7413 38.6208 11.5413 38.3208 11.2413C38.3208 11.1413 38.2208 11.1413 38.2208 11.1413C38.1208 11.0413 38.1208 11.0413 38.1208 11.0413C37.8208 10.8413 37.6208 10.7413 37.3208 10.5413Z" fill="white"/>
<path d="M37.4208 11.2415C37.3208 11.1415 37.2208 11.1415 37.2208 11.3415C37.2208 11.4415 37.5208 13.1415 37.5208 13.1415C37.6208 12.9415 37.8208 12.7415 37.9208 12.5415C38.1208 12.1415 38.3208 11.8415 37.9208 11.5415C37.8208 11.5415 37.6208 11.3415 37.4208 11.2415ZM46.7208 14.4415C46.7208 14.3415 46.7208 14.3415 46.7208 14.4415C46.4208 14.2415 46.2208 14.2415 45.9208 14.1415C45.4208 14.0415 44.9208 14.3415 44.7208 14.7415C44.5208 15.0415 44.3208 15.3415 44.2208 15.6415C44.2208 15.6415 44.1208 15.7415 44.2208 15.7415C44.3208 15.8415 46.6208 14.3415 46.7208 14.4415Z" fill="#151B19"/>
<path d="M37.1208 8.1415C37.2208 8.2415 37.2208 8.3415 37.2208 8.5415C37.3208 8.6415 37.4208 8.6415 37.6208 8.7415L37.7208 8.6415C37.8208 8.4415 37.9208 8.3415 38.0208 8.2415C38.2208 7.9415 38.4208 7.6415 38.3208 7.3415C38.2208 7.0415 38.9208 6.2415 38.9208 5.9415C38.8208 5.5415 38.6208 5.4415 38.7208 5.3415C38.8208 5.1415 39.0208 5.2415 39.2208 5.0415C39.3208 4.9415 39.4208 4.8415 39.5208 4.7415C39.6208 4.5415 39.5208 4.4415 39.4208 4.3415C39.2208 4.1415 39.1208 4.0415 39.0208 3.9415C38.9208 3.8415 38.7208 3.7415 38.6208 3.5415C38.3208 3.3415 38.0208 3.1415 37.8208 2.9415C37.5208 2.7415 37.3208 2.6415 37.0208 2.5415C36.9208 2.5415 36.7208 2.5415 36.6208 2.6415C36.5208 2.7415 36.4208 2.8415 36.4208 2.9415C36.3208 3.2415 36.3208 3.6415 36.4208 3.9415C36.5208 4.3415 36.5208 4.6415 36.6208 5.0415C36.7208 5.7415 36.8208 6.4415 37.0208 7.1415C36.9208 7.3415 37.0208 7.7415 37.1208 8.1415Z" fill="white"/>
<path d="M39.3208 21.4415C39.2208 21.3415 39.2208 21.3415 39.1208 21.2415C38.9208 21.0415 38.7208 20.9415 38.5208 20.7415C37.8208 20.2415 37.1208 19.6415 36.5208 19.0415C36.4208 18.9415 36.3208 18.8415 36.2208 18.8415C35.8208 18.6415 35.8208 18.7415 35.6208 19.1415C35.5208 19.3415 35.4208 19.7415 35.4208 19.9415C35.4208 20.3415 35.4208 20.7415 35.6208 21.0415C35.9208 21.5415 36.4208 21.9415 36.9208 22.0415C37.2208 22.1415 37.5208 22.1415 37.8208 22.2415C38.2208 22.3415 38.5208 22.3415 38.8208 22.2415C38.9208 22.2415 39.0208 22.1415 39.1208 22.1415C39.2208 22.1415 39.5208 22.0415 39.5208 21.9415C39.7208 21.8415 39.5208 21.6415 39.3208 21.4415Z" fill="#1B201C"/>
</svg>
